<svg xmlns="http://www.w3.org/2000/svg" xmlns:xlink="http://www.w3.org/1999/xlink" xmlns:lucid="lucid" width="1618.55" height="1740"><g transform="translate(450.4416666666666 618.8)" lucid:page-tab-id="0_0"><path d="M-430.44-592.8c0-3.3 2.68-6 6-6h108c3.3 0 6 2.7 6 6v88c0 3.3-2.7 6-6 6h-108c-3.32 0-6-2.7-6-6z" stroke="#3a414a" fill="#cfe4ff"/><use xlink:href="#a" transform="matrix(1,0,0,1,-430.4416666666666,-598.8) translate(36.60993827160494 55.27777777777778)"/><path d="M-430.44 1007.2c0-3.3 2.68-6 6-6h108c3.3 0 6 2.7 6 6v88c0 3.3-2.7 6-6 6h-108c-3.32 0-6-2.7-6-6z" stroke="#3a414a" fill="#cfe4ff"/><use xlink:href="#a" transform="matrix(1,0,0,1,-430.4416666666666,1001.2) translate(36.60993827160494 55.27777777777778)"/><path d="M-370.44-497.8v5m0 5v9.97m0 5v9.98m0 5v9.98m0 5v9.98m0 5v10m0 5v9.97m0 5v9.98m0 5v9.98m0 5v9.98m0 5v10m0 5v9.97m0 5v9.98m0 5v9.98m0 5v9.98m0 5v10m0 5v9.97m0 5v9.98m0 5v9.98m0 5v9.98m0 5v10m0 5v9.97m0 5v9.98m0 5v9.98m0 5v9.98m0 5v10m0 5v9.97m0 5v9.98m0 5v9.98m0 5v9.98m0 5v10m0 5v9.97m0 5v9.98m0 5v9.98m0 5v9.98m0 5v10m0 5v9.97m0 5v9.98m0 5v9.98m0 5v9.98m0 5v10m0 5v9.97m0 5v9.98m0 5v9.98m0 5v9.98m0 5v10m0 5v9.97m0 5v9.98m0 5v9.98m0 5v9.98m0 5v10m0 5v9.97m0 5v9.98m0 5v9.98m0 5v9.98m0 5v10m0 5v9.97m0 5v9.98m0 5v9.98m0 5V391m0 5v10m0 5v9.97m0 5v9.98m0 5v9.98m0 5v9.98m0 5v10m0 5v9.97m0 5v9.98m0 5v9.98m0 5v9.98m0 5v10m0 5v9.97m0 5v9.98m0 5v9.98m0 5v9.98m0 5v10m0 5v9.97m0 5v9.98m0 5v9.98m0 5v9.98m0 5v10m0 5v9.97m0 5v9.98m0 5v9.98m0 5v9.98m0 5v10m0 5v9.97m0 5v9.98m0 5v9.98m0 5v9.98m0 5v10m0 5v9.97m0 5v9.98m0 5v9.98m0 5v9.98m0 5v10m0 5v9.97m0 5v9.98m0 5v9.98m0 5v9.98m0 5v5" stroke="#3a414a" fill="none"/><path d="M-369.94-497.8h-1v-.5h1zM-369.94 1000.7h-1v-.5h1z" stroke="#3a414a" stroke-width=".05" fill="#3a414a"/><path d="M-67.1-592.8c0-3.3 2.7-6 6-6h108c3.32 0 6 2.7 6 6v88c0 3.3-2.68 6-6 6h-108c-3.3 0-6-2.7-6-6z" stroke="#3a414a" fill="#cfe4ff"/><use xlink:href="#b" transform="matrix(1,0,0,1,-67.09166666666658,-598.8) translate(19.88154320987654 27.15277777777778)"/><use xlink:href="#c" transform="matrix(1,0,0,1,-67.09166666666658,-598.8) translate(20.560555555555545 53.81944444444445)"/><use xlink:href="#d" transform="matrix(1,0,0,1,-67.09166666666658,-598.8) translate(37.84450617283951 80.48611111111111)"/><path d="M-67.1 1007.2c0-3.3 2.7-6 6-6h108c3.32 0 6 2.7 6 6v88c0 3.3-2.68 6-6 6h-108c-3.3 0-6-2.7-6-6z" stroke="#3a414a" fill="#cfe4ff"/><use xlink:href="#b" transform="matrix(1,0,0,1,-67.09166666666658,1001.2) translate(19.88154320987654 27.15277777777778)"/><use xlink:href="#c" transform="matrix(1,0,0,1,-67.09166666666658,1001.2) translate(20.560555555555545 53.81944444444445)"/><use xlink:href="#d" transform="matrix(1,0,0,1,-67.09166666666658,1001.2) translate(37.84450617283951 80.48611111111111)"/><path d="M-7.1-497.8v5m0 5v9.97m0 5v9.98m0 5v9.98m0 5v9.98m0 5v10m0 5v9.97m0 5v9.98m0 5v9.98m0 5v9.98m0 5v10m0 5v9.97m0 5v9.98m0 5v9.98m0 5v9.98m0 5v10m0 5v9.97m0 5v9.98m0 5v9.98m0 5v9.98m0 5v10m0 5v9.97m0 5v9.98m0 5v9.98m0 5v9.98m0 5v10m0 5v9.97m0 5v9.98m0 5v9.98m0 5v9.98m0 5v10m0 5v9.97m0 5v9.98m0 5v9.98m0 5v9.98m0 5v10m0 5v9.97m0 5v9.98m0 5v9.98m0 5v9.98m0 5v10m0 5v9.97m0 5v9.98m0 5v9.98m0 5v9.98m0 5v10m0 5v9.97m0 5v9.98m0 5v9.98m0 5v9.98m0 5v10m0 5v9.97m0 5v9.98m0 5v9.98m0 5v9.98m0 5v10m0 5v9.97m0 5v9.98m0 5v9.98m0 5V391m0 5v10m0 5v9.97m0 5v9.98m0 5v9.98m0 5v9.98m0 5v10m0 5v9.97m0 5v9.98m0 5v9.98m0 5v9.98m0 5v10m0 5v9.97m0 5v9.98m0 5v9.98m0 5v9.98m0 5v10m0 5v9.97m0 5v9.98m0 5v9.98m0 5v9.98m0 5v10m0 5v9.97m0 5v9.98m0 5v9.98m0 5v9.98m0 5v10m0 5v9.97m0 5v9.98m0 5v9.98m0 5v9.98m0 5v10m0 5v9.97m0 5v9.98m0 5v9.98m0 5v9.98m0 5v10m0 5v9.97m0 5v9.98m0 5v9.98m0 5v9.98m0 5v5" stroke="#3a414a" fill="none"/><path d="M-6.6-497.8h-1v-.5h1zM-6.6 1000.7h-1v-.5h1z" stroke="#3a414a" stroke-width=".05" fill="#3a414a"/><path d="M296.26-592.8c0-3.3 2.68-6 6-6h108c3.3 0 6 2.7 6 6v88c0 3.3-2.7 6-6 6h-108c-3.32 0-6-2.7-6-6z" stroke="#3a414a" fill="#cfe4ff"/><use xlink:href="#b" transform="matrix(1,0,0,1,296.25833333333344,-598.8) translate(19.88154320987654 27.15277777777778)"/><use xlink:href="#c" transform="matrix(1,0,0,1,296.25833333333344,-598.8) translate(20.560555555555545 53.81944444444445)"/><use xlink:href="#e" transform="matrix(1,0,0,1,296.25833333333344,-598.8) translate(14.44944444444444 80.48611111111111)"/><path d="M296.26 1007.2c0-3.3 2.68-6 6-6h108c3.3 0 6 2.7 6 6v88c0 3.3-2.7 6-6 6h-108c-3.32 0-6-2.7-6-6z" stroke="#3a414a" fill="#cfe4ff"/><use xlink:href="#b" transform="matrix(1,0,0,1,296.25833333333344,1001.2) translate(19.88154320987654 27.15277777777778)"/><use xlink:href="#c" transform="matrix(1,0,0,1,296.25833333333344,1001.2) translate(20.560555555555545 53.81944444444445)"/><use xlink:href="#e" transform="matrix(1,0,0,1,296.25833333333344,1001.2) translate(14.44944444444444 80.48611111111111)"/><path d="M356.26-497.8v5m0 5v9.97m0 5v9.98m0 5v9.98m0 5v9.98m0 5v10m0 5v9.97m0 5v9.98m0 5v9.98m0 5v9.98m0 5v10m0 5v9.97m0 5v9.98m0 5v9.98m0 5v9.98m0 5v10m0 5v9.97m0 5v9.98m0 5v9.98m0 5v9.98m0 5v10m0 5v9.97m0 5v9.98m0 5v9.98m0 5v9.98m0 5v10m0 5v9.97m0 5v9.98m0 5v9.98m0 5v9.98m0 5v10m0 5v9.97m0 5v9.98m0 5v9.98m0 5v9.98m0 5v10m0 5v9.97m0 5v9.98m0 5v9.98m0 5v9.98m0 5v10m0 5v9.97m0 5v9.98m0 5v9.98m0 5v9.98m0 5v10m0 5v9.97m0 5v9.98m0 5v9.98m0 5v9.98m0 5v10m0 5v9.97m0 5v9.98m0 5v9.98m0 5v9.98m0 5v10m0 5v9.97m0 5v9.98m0 5v9.98m0 5V391m0 5v10m0 5v9.97m0 5v9.98m0 5v9.98m0 5v9.98m0 5v10m0 5v9.97m0 5v9.98m0 5v9.98m0 5v9.98m0 5v10m0 5v9.97m0 5v9.98m0 5v9.98m0 5v9.98m0 5v10m0 5v9.97m0 5v9.98m0 5v9.98m0 5v9.98m0 5v10m0 5v9.97m0 5v9.98m0 5v9.98m0 5v9.98m0 5v10m0 5v9.97m0 5v9.98m0 5v9.98m0 5v9.98m0 5v10m0 5v9.97m0 5v9.98m0 5v9.98m0 5v9.98m0 5v10m0 5v9.97m0 5v9.98m0 5v9.98m0 5v9.98m0 5v5" stroke="#3a414a" fill="none"/><path d="M356.76-497.8h-1v-.5h1zM356.76 1000.7h-1v-.5h1z" stroke="#3a414a" stroke-width=".05" fill="#3a414a"/><path d="M659.6-592.8c0-3.3 2.7-6 6-6h108c3.32 0 6 2.7 6 6v88c0 3.3-2.68 6-6 6h-108c-3.3 0-6-2.7-6-6z" stroke="#3a414a" fill="#cfe4ff"/><use xlink:href="#f" transform="matrix(1,0,0,1,659.6083333333336,-598.8) translate(27.35067901234568 55.27777777777778)"/><path d="M659.6 1007.2c0-3.3 2.7-6 6-6h108c3.32 0 6 2.7 6 6v88c0 3.3-2.68 6-6 6h-108c-3.3 0-6-2.7-6-6z" stroke="#3a414a" fill="#cfe4ff"/><use xlink:href="#f" transform="matrix(1,0,0,1,659.6083333333336,1001.2) translate(27.35067901234568 55.27777777777778)"/><path d="M719.6-497.8v5m0 5v9.97m0 5v9.98m0 5v9.98m0 5v9.98m0 5v10m0 5v9.97m0 5v9.98m0 5v9.98m0 5v9.98m0 5v10m0 5v9.97m0 5v9.98m0 5v9.98m0 5v9.98m0 5v10m0 5v9.97m0 5v9.98m0 5v9.98m0 5v9.98m0 5v10m0 5v9.97m0 5v9.98m0 5v9.98m0 5v9.98m0 5v10m0 5v9.97m0 5v9.98m0 5v9.98m0 5v9.98m0 5v10m0 5v9.97m0 5v9.98m0 5v9.98m0 5v9.98m0 5v10m0 5v9.97m0 5v9.98m0 5v9.98m0 5v9.98m0 5v10m0 5v9.97m0 5v9.98m0 5v9.98m0 5v9.98m0 5v10m0 5v9.97m0 5v9.98m0 5v9.98m0 5v9.98m0 5v10m0 5v9.97m0 5v9.98m0 5v9.98m0 5v9.98m0 5v10m0 5v9.97m0 5v9.98m0 5v9.98m0 5V391m0 5v10m0 5v9.97m0 5v9.98m0 5v9.98m0 5v9.98m0 5v10m0 5v9.97m0 5v9.98m0 5v9.98m0 5v9.98m0 5v10m0 5v9.97m0 5v9.98m0 5v9.98m0 5v9.98m0 5v10m0 5v9.97m0 5v9.98m0 5v9.98m0 5v9.98m0 5v10m0 5v9.97m0 5v9.98m0 5v9.98m0 5v9.98m0 5v10m0 5v9.97m0 5v9.98m0 5v9.98m0 5v9.98m0 5v10m0 5v9.97m0 5v9.98m0 5v9.98m0 5v9.98m0 5v10m0 5v9.97m0 5v9.98m0 5v9.98m0 5v9.98m0 5v5" stroke="#3a414a" fill="none"/><path d="M720.1-497.8h-1v-.5h1zM720.1 1000.7h-1v-.5h1z" stroke="#3a414a" stroke-width=".05" fill="#3a414a"/><path d="M1028.1-592.8c0-3.3 2.7-6 6-6h108c3.32 0 6 2.7 6 6v88c0 3.3-2.68 6-6 6h-108c-3.3 0-6-2.7-6-6z" stroke="#3a414a" fill="#cfe4ff"/><use xlink:href="#g" transform="matrix(1,0,0,1,1028.1083333333336,-598.8) translate(12.504999999999997 55.27777777777778)"/><path d="M1028.1 1007.2c0-3.3 2.7-6 6-6h108c3.32 0 6 2.7 6 6v88c0 3.3-2.68 6-6 6h-108c-3.3 0-6-2.7-6-6z" stroke="#3a414a" fill="#cfe4ff"/><use xlink:href="#g" transform="matrix(1,0,0,1,1028.1083333333336,1001.2) translate(12.504999999999997 55.27777777777778)"/><path d="M1088.1-497.8v5m0 5v9.97m0 5v9.98m0 5v9.98m0 5v9.98m0 5v10m0 5v9.97m0 5v9.98m0 5v9.98m0 5v9.98m0 5v10m0 5v9.97m0 5v9.98m0 5v9.98m0 5v9.98m0 5v10m0 5v9.97m0 5v9.98m0 5v9.98m0 5v9.98m0 5v10m0 5v9.97m0 5v9.98m0 5v9.98m0 5v9.98m0 5v10m0 5v9.97m0 5v9.98m0 5v9.98m0 5v9.98m0 5v10m0 5v9.97m0 5v9.98m0 5v9.98m0 5v9.98m0 5v10m0 5v9.97m0 5v9.98m0 5v9.98m0 5v9.98m0 5v10m0 5v9.97m0 5v9.98m0 5v9.98m0 5v9.98m0 5v10m0 5v9.97m0 5v9.98m0 5v9.98m0 5v9.98m0 5v10m0 5v9.97m0 5v9.98m0 5v9.98m0 5v9.98m0 5v10m0 5v9.97m0 5v9.98m0 5v9.98m0 5V391m0 5v10m0 5v9.97m0 5v9.98m0 5v9.98m0 5v9.98m0 5v10m0 5v9.97m0 5v9.98m0 5v9.98m0 5v9.98m0 5v10m0 5v9.97m0 5v9.98m0 5v9.98m0 5v9.98m0 5v10m0 5v9.97m0 5v9.98m0 5v9.98m0 5v9.98m0 5v10m0 5v9.97m0 5v9.98m0 5v9.98m0 5v9.98m0 5v10m0 5v9.97m0 5v9.98m0 5v9.98m0 5v9.98m0 5v10m0 5v9.97m0 5v9.98m0 5v9.98m0 5v9.98m0 5v10m0 5v9.97m0 5v9.98m0 5v9.98m0 5v9.98m0 5v5" stroke="#3a414a" fill="none"/><path d="M1088.6-497.8h-1v-.5h1zM1088.6 1000.7h-1v-.5h1z" stroke="#3a414a" stroke-width=".05" fill="#3a414a"/><path d="M-27.1-452.33c0-3.3 2.7-6 6-6h28c3.32 0 6 2.7 6 6v167.88c0 3.32-2.68 6-6 6h-28c-3.3 0-6-2.68-6-6zM336.26-212.5c0-3.3 2.68-6 6-6h28c3.3 0 6 2.7 6 6v167.9c0 3.3-2.7 6-6 6h-28c-3.32 0-6-2.7-6-6zM699.6-32.6c0-3.32 2.7-6 6-6h28c3.32 0 6 2.68 6 6V75.3c0 3.33-2.68 6-6 6h-28c-3.3 0-6-2.67-6-6zM699.6 307.17c0-3.32 2.7-6 6-6h28c3.32 0 6 2.68 6 6v47.96c0 3.3-2.68 6-6 6h-28c-3.3 0-6-2.7-6-6zM699.6 786.85c0-3.32 2.7-6 6-6h28c3.32 0 6 2.68 6 6v47.96c0 3.32-2.68 6-6 6h-28c-3.3 0-6-2.68-6-6zM1068.1 846.8c0-3.3 2.7-6 6-6h28c3.32 0 6 2.7 6 6v47.97c0 3.3-2.68 6-6 6h-28c-3.3 0-6-2.7-6-6z" stroke="#3a414a" fill="#cfe4ff"/><path d="M-28.1-399.12l-325.96.72" stroke="#3a414a" fill="none"/><path d="M-27.6-398.62h-.5v-1h.5z" stroke="#3a414a" stroke-width=".05" fill="#3a414a"/><path d="M-368.82-398.37l14.25-4.67.02 9.27z" stroke="#3a414a" fill="#3a414a"/><use xlink:href="#h" transform="matrix(1,0,0,1,-274.9548466421583,-424.07363011057737) translate(0 14.222222222222223)"/><use xlink:href="#i" transform="matrix(1,0,0,1,-274.9548466421583,-424.07363011057737) translate(65.97530864197532 14.222222222222223)"/><path d="M-28.1-337.66l-325.96-.7" stroke="#3a414a" fill="none"/><path d="M-27.6-338.16v1h-.5v-1z" stroke="#3a414a" stroke-width=".05" fill="#3a414a"/><path d="M-368.82-338.4l14.27-4.6-.02 9.26z" stroke="#3a414a" fill="#3a414a"/><use xlink:href="#j" transform="matrix(1,0,0,1,-274.8074920084493,-363.3640768043189) translate(0 14.222222222222223)"/><use xlink:href="#k" transform="matrix(1,0,0,1,-274.8074920084493,-363.3640768043189) translate(70.9135802469136 14.222222222222223)"/><path d="M-27.03-280.97l-327.03 2.4" stroke="#3a414a" fill="none"/><path d="M-26.72-281.16l.7.7h-1.02v-1h.24z" stroke="#3a414a" stroke-width=".05" fill="#3a414a"/><path d="M-368.82-278.46l14.23-4.74.08 9.27z" stroke="#3a414a" fill="#3a414a"/><use xlink:href="#j" transform="matrix(1,0,0,1,-278.9491689793131,-305.0281892297401) translate(0 14.222222222222223)"/><use xlink:href="#k" transform="matrix(1,0,0,1,-278.9491689793131,-305.0281892297401) translate(70.9135802469136 14.222222222222223)"/><path d="M-369.94-218.48h5m5 .03l10.02.04m5 0l10.02.04m5 .02l10.02.03m5 0l10.02.05m5 .02l10.02.03m5 .02l10 .03m5.02.02l10 .04m5.02.03l10 .03m5.02.02l10 .04m5 0l10.03.05m5 .02l10 .02m5.02.02l10 .04m5.02 0l10 .05m5 .02l10.02.03m5 .02l10.02.04m5 0l10 .05m5.02 0l10 .04m5.02.02l10 .04m5.02.02l10 .03m5 .02l10.03.03m5 .02l10.02.04m5 .02l10 .03m5.02.03l10 .04m5.02 0l10 .05m5 .02l10.02.03m5 .02l10.02.03m5 0l10 .05m5.02.02l10 .03m5.02.02l10 .04m5.02 0l10 .04m5 .02l10.03.03m5 0l10 .05m5.02.02l10 .03m5.02.02l10 .03m5.02.02l10 .04m5 .03l10.02.03m5 .02l10.02.04m5 0l10 .05m5.02.02l10 .02m5.02.02l10 .04m5.02 0l10 .05m5 .02l10.03.03m5 .02l10 .04m5.02 0l10 .05m5.02 0l10 .04m5.02.02l10 .04m5 .02h5M-369.93-218.48h-.5M318.6-205.85l17.24-10.12-17.18-10.24" stroke="#3a414a" fill="none"/><use xlink:href="#l" transform="matrix(1,0,0,1,-81.55102541451652,-242.55623782226937) translate(0 14.222222222222223)"/><use xlink:href="#i" transform="matrix(1,0,0,1,-81.55102541451652,-242.55623782226937) translate(48.296296296296305 14.222222222222223)"/><path d="M-369.94-158.53h5m5 0l10-.02m5 0h10m5-.02h9.98m5-.02h10m5 0h10m5-.02h10m5 0l10-.02m4.98 0l10-.02m5 0l10-.02m5 0h10m5-.02h10m5 0l9.98-.02m5 0l10-.02m5 0l10-.02m5 0h10m5-.02h10m4.98 0l10-.02m5 0l10-.02m5 0h10m5-.02h10m5-.02h9.98m5 0l10-.02m5 0l10-.02m5 0h10m5-.02h10m4.98-.02h10m5 0l10-.02m5 0l10-.02m5 0h10m5-.02h9.98m5-.02h10m5 0l10-.02m5 0l10-.02m5 0h10m4.98-.02h10m5 0l10-.03m5 0l10-.02m5 0l10-.02m5 0h9.98m5-.02h10m5 0l10-.03m5 0h10m5 0l10-.02m4.98 0h10m5-.02h10m5 0l10-.02m5 0l5-.02M-369.93-158.53h-.5M317.57-149.08l17.2-10.2-17.22-10.16" stroke="#3a414a" fill="none"/><use xlink:href="#l" transform="matrix(1,0,0,1,-83.28872721993294,-184.23454224658903) translate(0 14.222222222222223)"/><use xlink:href="#k" transform="matrix(1,0,0,1,-83.28872721993294,-184.23454224658903) translate(48.296296296296305 14.222222222222223)"/><path d="M-369.94-98.57h5m5 0l10 .03m5 0h10m5 .02h9.98m5 0l10 .02m5 0l10 .02m5 0h10m5 .02h10m4.98.02h10m5 0l10 .02m5 0l10 .02m5 0h10m5 .02h9.98m5 .02h10m5 0l10 .02m5 0l10 .02m5 0h10m4.98.02h10m5 .02h10m5 0l10 .02m5 0l10 .02m5 0h9.98m5 .02h10m5 0l10 .03m5 0l10 .02m5 0l10 .02m4.98 0h10m5 .02h10m5 0l10 .02m5 0l10 .02m5 0l9.98.02m5 0h10m5 .02h10m5 0l10 .02m5 0l10 .02m4.98 0l10 .02m5 0h10m5 .02h10m5 0l10 .02m5 0l9.98.02m5 0l10 .02m5 0h10m5 .02h10m5 0l10 .02m4.98 0l10 .02m5 0l10 .02m5 0h10m5 .02h5M-369.93-98.57h-.5M317.55-87.66l17.23-10.16-17.2-10.2" stroke="#3a414a" fill="none"/><use xlink:href="#l" transform="matrix(1,0,0,1,-82.50571722451129,-123.52504224658901) translate(0 14.222222222222223)"/><use xlink:href="#k" transform="matrix(1,0,0,1,-82.50571722451129,-123.52504224658901) translate(48.296296296296305 14.222222222222223)"/><path d="M376.2-41.12L684-36.54" stroke="#3a414a" fill="none"/><path d="M376.22-41.62l-.02 1-1-.02.7-.68.07-.3z" stroke="#3a414a" stroke-width=".05" fill="#3a414a"/><path d="M698.76-36.32l-14.33 4.42.14-9.27z" stroke="#3a414a" fill="#3a414a"/><use xlink:href="#m" transform="matrix(1,0,0,1,431.40984367118887,-63.914750457978926) translate(0 14.222222222222223)"/><path d="M740.6.87h93c3.32 0 6 2.68 6 6v28.97c0 3.3-2.68 6-6 6h-77.1" stroke="#3a414a" fill="none"/><path d="M740.62 1.37h-.5v-1h.5z" stroke="#3a414a" stroke-width=".05" fill="#3a414a"/><path d="M741.73 41.84L756 37.2v9.27z" stroke="#3a414a" fill="#3a414a"/><use xlink:href="#n" transform="matrix(1,0,0,1,847.6083333333336,10.686666666666707) translate(0 14.222222222222223)"/><path d="M738.84 79.5v38.94c0 1.57-1.28 2.85-2.85 2.85" stroke="#3a414a" fill="none"/><path d="M739.34 79.5h-1l.9-.9.1-.37z" stroke="#3a414a" stroke-width=".05" fill="#3a414a"/><path d="M721.23 121.3l14.26-4.65v9.27z" stroke="#3a414a" fill="#3a414a"/><use xlink:href="#o" transform="matrix(1,0,0,1,698.3578562389125,125.09356999062105) translate(0 14.222222222222223)"/><path d="M-420.44 147.27c0-3.3 2.68-6 6-6h88c3.3 0 6 2.7 6 6v8c0 3.32-1.9 7.9-4.24 10.25l-1.52 1.5c-2.34 2.35-6.93 4.25-10.24 4.25h-78c-3.32 0-6-2.68-6-6z" fill="#cfe4ff"/><path d="M-320.44 141.27v20l-10 10h-90" stroke="#3a414a" fill="none"/><path d="M-420.44 147.27c0-3.3 2.68-6 6-6H1122.1c3.32 0 6 2.7 6 6v767.48c0 3.32-2.68 6-6 6H-414.43c-3.32 0-6-2.68-6-6zM-420.44 740.87h20m15 0h20m15 0h20m15 0h20m15 0h20m15 0h20m15 0h20m15 0h20m15 0h20m15 0h20m15 0h20m15 0h20m15 0h20m15 0h20m15 0h20m15 0h20m15 0h20m15 0h20m15 0h20m15 0h20m15 0h20m15 0h20m15 0h20m15 0h20m15 0h20m15 0h20m15 0h20m15 0h20m15 0h20m15 0h20m15 0h20m15 0h20m15 0h20m15 0h20m15 0h20m15 0h20m15 0h20m15 0h20m15 0h20m15 0h20m15 0h20m15 0h20m15 0h20m15 0h20m15 0h8.55" stroke="#3a414a" fill="none"/><use xlink:href="#p" transform="matrix(1,0,0,1,-412.4416666666666,141.27333333333354) translate(0 19.444444444444443)"/><use xlink:href="#q" transform="matrix(1,0,0,1,-408.4416666666666,179.27333333333354) translate(0 19.444444444444443)"/><use xlink:href="#r" transform="matrix(1,0,0,1,-408.4416666666666,179.27333333333354) translate(110.98765432098764 19.444444444444443)"/><use xlink:href="#s" transform="matrix(1,0,0,1,-408.4416666666666,179.27333333333354) translate(136.85185185185185 19.444444444444443)"/><use xlink:href="#t" transform="matrix(1,0,0,1,-408.4416666666666,179.27333333333354) translate(237.96296296296296 19.444444444444443)"/><use xlink:href="#q" transform="matrix(1,0,0,1,-408.4416666666666,748.8733333333336) translate(0 19.444444444444443)"/><use xlink:href="#u" transform="matrix(1,0,0,1,-408.4416666666666,748.8733333333336) translate(110.98765432098764 19.444444444444443)"/><use xlink:href="#s" transform="matrix(1,0,0,1,-408.4416666666666,748.8733333333336) translate(131.9753086419753 19.444444444444443)"/><use xlink:href="#v" transform="matrix(1,0,0,1,-408.4416666666666,748.8733333333336) translate(233.0864197530864 19.444444444444443)"/><path d="M-400.44 227.22c0-3.3 2.68-6 6-6h88c3.3 0 6 2.7 6 6v8c0 3.3-1.9 7.9-4.24 10.24l-1.52 1.52c-2.34 2.34-6.93 4.24-10.24 4.24h-78c-3.32 0-6-2.7-6-6z" fill="#cfe4ff"/><path d="M-300.44 221.22v20l-10 10h-90" stroke="#3a414a" fill="none"/><path d="M-400.44 227.22c0-3.3 2.68-6 6-6H743.6c3.32 0 6 2.7 6 6V714.9c0 3.3-2.68 6-6 6H-394.43c-3.32 0-6-2.7-6-6z" stroke="#3a414a" fill="none"/><use xlink:href="#w" transform="matrix(1,0,0,1,-392.4416666666666,221.21999999999994) translate(0 19.444444444444443)"/><path d="M700.34 359.28l-4.97.03m-4.97.03l-9.95.06m-4.98 0l-9.94.07m-4.98.02l-9.94.05m-4.97.02l-9.94.06m-5 .02l-9.93.06m-4.98.03l-9.96.06m-4.97 0l-9.95.07m-4.97.02l-9.95.05m-4.97.02l-9.95.06m-4.97.02l-9.94.06m-4.97.03l-9.96.06m-4.97 0l-9.95.07m-4.97.02l-9.95.05m-4.97.02l-9.95.06m-4.97.02l-9.94.06m-4.97.03l-9.96.06m-4.98 0l-9.94.07m-4.98.02l-9.94.05m-4.98.02l-9.94.06m-4.98.02l-9.94.06m-4.98.03l-9.94.06m-4.98 0l-9.95.07m-4.96.03l-4.97.02" stroke="#3a414a" fill="none"/><path d="M701.34 359.77h-1v-1z" stroke="#3a414a" stroke-width=".05" fill="#3a414a"/><path d="M374.4 350.85l-17.16 10.27 17.27 10.1" stroke="#3a414a" fill="none"/><use xlink:href="#x" transform="matrix(1,0,0,1,343.08218228682426,324.7076623248447) translate(0 14.222222222222223)"/><use xlink:href="#y" transform="matrix(1,0,0,1,343.08218228682426,324.7076623248447) translate(88.79012345679013 14.222222222222223)"/><use xlink:href="#z" transform="matrix(1,0,0,1,343.08218228682426,324.7076623248447) translate(111.4567901234568 14.222222222222223)"/><use xlink:href="#A" transform="matrix(1,0,0,1,343.08218228682426,324.7076623248447) translate(199.20987654320987 14.222222222222223)"/><use xlink:href="#B" transform="matrix(1,0,0,1,343.08218228682426,324.7076623248447) translate(273.1358024691358 14.222222222222223)"/><use xlink:href="#C" transform="matrix(1,0,0,1,343.08218228682426,324.7076623248447) translate(319.5061728395062 14.222222222222223)"/><path d="M355.76 421.1h-5.03m-5.03 0h-10.05m-5.03 0h-10.05m-5.03 0H305.5m-5.04 0H290.4m-5.02 0h-10.05m-5.03 0h-10.05m-5.03 0h-10.05m-5.03 0h-10.06m-5.02 0H215m-5.02 0h-10.06m-5.02 0h-10.06m-5.03 0h-10.04m-5.03 0h-10.05m-5.03 0H139.6m-5.03 0h-10.05m-5.03 0h-10.06m-5.03 0H94.37m-5.03 0H79.28m-5.03 0H64.2m-5.03 0H49.1m-5 0H34.02m-5.02 0H18.96m-5.02 0H3.87m-5.03 0h-5.02M355.75 421.1h.5M11.1 410.9l-17.2 10.2 17.2 10.17" stroke="#3a414a" fill="none"/><g><use xlink:href="#x" transform="matrix(1,0,0,1,-3.4166666666666288,385.57250501832584) translate(0 14.222222222222223)"/><use xlink:href="#y" transform="matrix(1,0,0,1,-3.4166666666666288,385.57250501832584) translate(88.79012345679013 14.222222222222223)"/><use xlink:href="#z" transform="matrix(1,0,0,1,-3.4166666666666288,385.57250501832584) translate(111.4567901234568 14.222222222222223)"/><use xlink:href="#A" transform="matrix(1,0,0,1,-3.4166666666666288,385.57250501832584) translate(199.20987654320987 14.222222222222223)"/><use xlink:href="#B" transform="matrix(1,0,0,1,-3.4166666666666288,385.57250501832584) translate(273.1358024691358 14.222222222222223)"/><use xlink:href="#C" transform="matrix(1,0,0,1,-3.4166666666666288,385.57250501832584) translate(319.5061728395062 14.222222222222223)"/></g><path d="M-260.82 447.07c0-3.3 2.7-6 6-6h88c3.32 0 6 2.7 6 6v8c0 3.32-1.9 7.9-4.24 10.25l-1.5 1.5c-2.36 2.35-6.94 4.25-10.26 4.25h-78c-3.3 0-6-2.68-6-6z" fill="#cfe4ff"/><path d="M-160.82 441.07v20l-10 10h-90" stroke="#3a414a" fill="none"/><path d="M-260.82 447.07c0-3.3 2.7-6 6-6h635.08c3.3 0 6 2.7 6 6v127.9c0 3.32-2.7 6-6 6h-635.08c-3.3 0-6-2.68-6-6z" stroke="#3a414a" fill="none"/><g><use xlink:href="#D" transform="matrix(1,0,0,1,-252.8166666666666,441.07333333333355) translate(0 19.444444444444443)"/></g><path d="M-240.82 501h455.45l12 12v48h-467.45z" stroke="#3a414a" fill="#cfe4ff"/><path d="M214.63 501.47V513h11.53" stroke="#3a414a" fill="#cfe4ff"/><g><use xlink:href="#E" transform="matrix(1,0,0,1,-235.81666666666658,505.99333333333334) translate(24.66049382716048 17.77777777777778)"/><use xlink:href="#F" transform="matrix(1,0,0,1,-235.81666666666658,505.99333333333334) translate(145.46296296296296 17.77777777777778)"/><use xlink:href="#r" transform="matrix(1,0,0,1,-235.81666666666658,505.99333333333334) translate(250.27777777777777 17.77777777777778)"/><use xlink:href="#s" transform="matrix(1,0,0,1,-235.81666666666658,505.99333333333334) translate(276.141975308642 17.77777777777778)"/><use xlink:href="#G" transform="matrix(1,0,0,1,-235.81666666666658,505.99333333333334) translate(377.2530864197531 17.77777777777778)"/><use xlink:href="#H" transform="matrix(1,0,0,1,-235.81666666666658,505.99333333333334) translate(168.5679012345679 44.44444444444444)"/><use xlink:href="#I" transform="matrix(1,0,0,1,-235.81666666666658,505.99333333333334) translate(234 44.44444444444444)"/><use xlink:href="#J" transform="matrix(1,0,0,1,-235.81666666666658,505.99333333333334) translate(257.39506172839504 44.44444444444444)"/></g><path d="M-7.6 640.94h-5.02m-5.03 0H-27.7m-5.03 0h-10.05m-5.03 0h-10.06m-5.03 0h-10.04m-5.03 0h-10.05m-5.03 0h-10.05m-5.03 0h-10.05m-5.03 0h-10.07m-5.02 0h-10.05m-5.02 0h-10.06m-5.02 0h-10.06m-5.04 0h-10.05m-5.02 0h-10.05m-5.03 0h-10.05m-5.03 0h-10.05m-5.03 0h-10.05m-5.04 0H-269m-5.02 0h-10.05m-5.03 0h-10.06m-5.02 0h-10.06m-5.02 0h-10.06m-5.02 0h-10.06m-5.02 0h-10.06m-5.03 0h-5.03M-7.6 640.94h.5M-352.24 630.76l-17.22 10.18 17.22 10.18" stroke="#3a414a" fill="none"/><g><use xlink:href="#x" transform="matrix(1,0,0,1,-366.76666666666665,605.4258383516593) translate(0 14.222222222222223)"/><use xlink:href="#y" transform="matrix(1,0,0,1,-366.76666666666665,605.4258383516593) translate(88.79012345679013 14.222222222222223)"/><use xlink:href="#z" transform="matrix(1,0,0,1,-366.76666666666665,605.4258383516593) translate(111.4567901234568 14.222222222222223)"/><use xlink:href="#A" transform="matrix(1,0,0,1,-366.76666666666665,605.4258383516593) translate(199.20987654320987 14.222222222222223)"/><use xlink:href="#B" transform="matrix(1,0,0,1,-366.76666666666665,605.4258383516593) translate(273.1358024691358 14.222222222222223)"/><use xlink:href="#C" transform="matrix(1,0,0,1,-366.76666666666665,605.4258383516593) translate(319.5061728395062 14.222222222222223)"/></g><path d="M-369.94 700.9h5.03m5 0h10.07m5.02 0h10.05m5.02 0h10.06m5.02 0h10.06m5.04 0h10.05m5.02 0h10.05m5.03 0h10.05m5.03 0h10.05m5.03 0h10.05m5.04 0h10.05m5.02 0h10.05m5.03 0h10.06m5.02 0h10.06m5.02 0h10.06m5.02 0h10.06m5.03 0h10.05m5.03 0h10.06m5.03 0h10.04m5.03 0h10.05m5.03 0h10.05m5.03 0h10.05m5.03 0h10.06m5.03 0h10.05m5.02 0H-8M-369.93 700.9h-.5M-25.3 711.08l17.23-10.18-17.22-10.18" stroke="#3a414a" fill="none"/><g><use xlink:href="#l" transform="matrix(1,0,0,1,-310.05061728395054,675.5666666666667) translate(0 14.222222222222223)"/><use xlink:href="#K" transform="matrix(1,0,0,1,-310.05061728395054,675.5666666666667) translate(48.296296296296305 14.222222222222223)"/><use xlink:href="#L" transform="matrix(1,0,0,1,-310.05061728395054,675.5666666666667) translate(137.08641975308643 14.222222222222223)"/><use xlink:href="#M" transform="matrix(1,0,0,1,-310.05061728395054,675.5666666666667) translate(159.7530864197531 14.222222222222223)"/></g><path d="M738.87 838.96l314.1 3.5" stroke="#3a414a" fill="none"/><path d="M738.9 838.46l-.02 1h-1l1-1z" stroke="#3a414a" stroke-width=".05" fill="#3a414a"/><path d="M1067.72 842.64l-14.3 4.47.1-9.26z" stroke="#3a414a" fill="#3a414a"/><g><use xlink:href="#m" transform="matrix(1,0,0,1,792.8930326968136,815.547238274733) translate(0 14.222222222222223)"/></g><path d="M1068.84 898.92l-5.05.03m-5.05.02l-10.1.06m-5.05.02l-10.1.06m-5.04.03l-10.1.06m-5.05 0l-10.08.07m-5.05.02l-10.1.05m-5.05.02l-10.1.06m-5.04.02l-10.1.06m-5.05.03l-10.1.06m-5.04 0l-10.1.07m-5.06.02l-10.1.05m-5.04.02l-10.1.06m-5.04.02l-10.1.06m-5.05.03l-10.1.06m-5.03 0l-10.1.07m-5.05.02l-10.1.05m-5.04.02l-10.1.06m-5.05.02l-10.1.06m-5.04.03l-10.1.06m-5.06 0l-10.1.07m-5.04.02l-10.1.05m-5.05.02l-10.1.06m-5.04.03l-10.1.05m-5.03.04l-5.05.02" stroke="#3a414a" fill="none"/><path d="M1069.84 899.4l-1 .02v-1z" stroke="#3a414a" stroke-width=".05" fill="#3a414a"/><path d="M737.75 890.5l-17.16 10.26 17.26 10.1" stroke="#3a414a" fill="none"/><g><use xlink:href="#N" transform="matrix(1,0,0,1,850.6527177419875,874.5109229140521) translate(0 14.222222222222223)"/></g><defs><path fill="#3a414a" d="M232-93c-1 65-40 97-104 97C67 4 28-28 28-90v-158h33c8 89-33 224 67 224 102 0 64-133 71-224h33v155" id="O"/><path fill="#3a414a" d="M135-143c-3-34-86-38-87 0 15 53 115 12 119 90S17 21 10-45l28-5c4 36 97 45 98 0-10-56-113-15-118-90-4-57 82-63 122-42 12 7 21 19 24 35" id="P"/><path fill="#3a414a" d="M100-194c63 0 86 42 84 106H49c0 40 14 67 53 68 26 1 43-12 49-29l28 8c-11 28-37 45-77 45C44 4 14-33 15-96c1-61 26-98 85-98zm52 81c6-60-76-77-97-28-3 7-6 17-6 28h103" id="Q"/><path fill="#3a414a" d="M114-163C36-179 61-72 57 0H25l-1-190h30c1 12-1 29 2 39 6-27 23-49 58-41v29" id="R"/><g id="a"><use transform="matrix(0.06172839506172839,0,0,0.06172839506172839,0,0)" xlink:href="#O"/><use transform="matrix(0.06172839506172839,0,0,0.06172839506172839,15.987654320987653,0)" xlink:href="#P"/><use transform="matrix(0.06172839506172839,0,0,0.06172839506172839,27.098765432098766,0)" xlink:href="#Q"/><use transform="matrix(0.06172839506172839,0,0,0.06172839506172839,39.44444444444444,0)" xlink:href="#R"/></g><path fill="#3a414a" d="M205 0l-28-72H64L36 0H1l101-248h38L239 0h-34zm-38-99l-47-123c-12 45-31 82-46 123h93" id="S"/><path fill="#3a414a" d="M96-169c-40 0-48 33-48 73s9 75 48 75c24 0 41-14 43-38l32 2c-6 37-31 61-74 61-59 0-76-41-82-99-10-93 101-131 147-64 4 7 5 14 7 22l-32 3c-4-21-16-35-41-35" id="T"/><path fill="#3a414a" d="M100-194c62-1 85 37 85 99 1 63-27 99-86 99S16-35 15-95c0-66 28-99 85-99zM99-20c44 1 53-31 53-75 0-43-8-75-51-75s-53 32-53 75 10 74 51 75" id="U"/><path fill="#3a414a" d="M84 4C-5 8 30-112 23-190h32v120c0 31 7 50 39 49 72-2 45-101 50-169h31l1 190h-30c-1-10 1-25-2-33-11 22-28 36-60 37" id="V"/><path fill="#3a414a" d="M117-194c89-4 53 116 60 194h-32v-121c0-31-8-49-39-48C34-167 62-67 57 0H25l-1-190h30c1 10-1 24 2 32 11-22 29-35 61-36" id="W"/><path fill="#3a414a" d="M59-47c-2 24 18 29 38 22v24C64 9 27 4 27-40v-127H5v-23h24l9-43h21v43h35v23H59v120" id="X"/><g id="b"><use transform="matrix(0.06172839506172839,0,0,0.06172839506172839,0,0)" xlink:href="#S"/><use transform="matrix(0.06172839506172839,0,0,0.06172839506172839,14.814814814814813,0)" xlink:href="#T"/><use transform="matrix(0.06172839506172839,0,0,0.06172839506172839,25.925925925925924,0)" xlink:href="#T"/><use transform="matrix(0.06172839506172839,0,0,0.06172839506172839,37.03703703703704,0)" xlink:href="#U"/><use transform="matrix(0.06172839506172839,0,0,0.06172839506172839,49.382716049382715,0)" xlink:href="#V"/><use transform="matrix(0.06172839506172839,0,0,0.06172839506172839,61.72839506172839,0)" xlink:href="#W"/><use transform="matrix(0.06172839506172839,0,0,0.06172839506172839,74.07407407407408,0)" xlink:href="#X"/></g><path fill="#3a414a" d="M141-36C126-15 110 5 73 4 37 3 15-17 15-53c-1-64 63-63 125-63 3-35-9-54-41-54-24 1-41 7-42 31l-33-3c5-37 33-52 76-52 45 0 72 20 72 64v82c-1 20 7 32 28 27v20c-31 9-61-2-59-35zM48-53c0 20 12 33 32 33 41-3 63-29 60-74-43 2-92-5-92 41" id="Y"/><path fill="#3a414a" d="M24-231v-30h32v30H24zM24 0v-190h32V0H24" id="Z"/><g id="c"><use transform="matrix(0.06172839506172839,0,0,0.06172839506172839,0,0)" xlink:href="#T"/><use transform="matrix(0.06172839506172839,0,0,0.06172839506172839,11.11111111111111,0)" xlink:href="#R"/><use transform="matrix(0.06172839506172839,0,0,0.06172839506172839,18.45679012345679,0)" xlink:href="#Q"/><use transform="matrix(0.06172839506172839,0,0,0.06172839506172839,30.80246913580247,0)" xlink:href="#Y"/><use transform="matrix(0.06172839506172839,0,0,0.06172839506172839,43.148148148148145,0)" xlink:href="#X"/><use transform="matrix(0.06172839506172839,0,0,0.06172839506172839,49.32098765432099,0)" xlink:href="#Z"/><use transform="matrix(0.06172839506172839,0,0,0.06172839506172839,54.19753086419753,0)" xlink:href="#U"/><use transform="matrix(0.06172839506172839,0,0,0.06172839506172839,66.54320987654322,0)" xlink:href="#W"/></g><path fill="#3a414a" d="M108 0H70L1-190h34L89-25l56-165h34" id="aa"/><path fill="#3a414a" d="M206 0h-36l-40-164L89 0H53L-1-190h32L70-26l43-164h34l41 164 42-164h31" id="ab"/><g id="d"><use transform="matrix(0.06172839506172839,0,0,0.06172839506172839,0,0)" xlink:href="#aa"/><use transform="matrix(0.06172839506172839,0,0,0.06172839506172839,11.11111111111111,0)" xlink:href="#Z"/><use transform="matrix(0.06172839506172839,0,0,0.06172839506172839,15.987654320987653,0)" xlink:href="#Q"/><use transform="matrix(0.06172839506172839,0,0,0.06172839506172839,28.333333333333332,0)" xlink:href="#ab"/></g><path fill="#3a414a" d="M24 0v-261h32V0H24" id="ac"/><g id="e"><use transform="matrix(0.06172839506172839,0,0,0.06172839506172839,0,0)" xlink:href="#T"/><use transform="matrix(0.06172839506172839,0,0,0.06172839506172839,11.11111111111111,0)" xlink:href="#U"/><use transform="matrix(0.06172839506172839,0,0,0.06172839506172839,23.45679012345679,0)" xlink:href="#W"/><use transform="matrix(0.06172839506172839,0,0,0.06172839506172839,35.80246913580247,0)" xlink:href="#X"/><use transform="matrix(0.06172839506172839,0,0,0.06172839506172839,41.97530864197531,0)" xlink:href="#R"/><use transform="matrix(0.06172839506172839,0,0,0.06172839506172839,49.32098765432099,0)" xlink:href="#U"/><use transform="matrix(0.06172839506172839,0,0,0.06172839506172839,61.666666666666664,0)" xlink:href="#ac"/><use transform="matrix(0.06172839506172839,0,0,0.06172839506172839,66.5432098765432,0)" xlink:href="#ac"/><use transform="matrix(0.06172839506172839,0,0,0.06172839506172839,71.41975308641975,0)" xlink:href="#Q"/><use transform="matrix(0.06172839506172839,0,0,0.06172839506172839,83.76543209876543,0)" xlink:href="#R"/></g><path fill="#3a414a" d="M185-189c-5-48-123-54-124 2 14 75 158 14 163 119 3 78-121 87-175 55-17-10-28-26-33-46l33-7c5 56 141 63 141-1 0-78-155-14-162-118-5-82 145-84 179-34 5 7 8 16 11 25" id="ad"/><g id="f"><use transform="matrix(0.06172839506172839,0,0,0.06172839506172839,0,0)" xlink:href="#ad"/><use transform="matrix(0.06172839506172839,0,0,0.06172839506172839,14.814814814814813,0)" xlink:href="#Q"/><use transform="matrix(0.06172839506172839,0,0,0.06172839506172839,27.160493827160494,0)" xlink:href="#R"/><use transform="matrix(0.06172839506172839,0,0,0.06172839506172839,34.50617283950617,0)" xlink:href="#aa"/><use transform="matrix(0.06172839506172839,0,0,0.06172839506172839,45.61728395061728,0)" xlink:href="#Q"/><use transform="matrix(0.06172839506172839,0,0,0.06172839506172839,57.962962962962955,0)" xlink:href="#R"/></g><path fill="#3a414a" d="M30-248c118-7 216 8 213 122C240-48 200 0 122 0H30v-248zM63-27c89 8 146-16 146-99s-60-101-146-95v194" id="ae"/><path fill="#3a414a" d="M115-194c53 0 69 39 70 98 0 66-23 100-70 100C84 3 66-7 56-30L54 0H23l1-261h32v101c10-23 28-34 59-34zm-8 174c40 0 45-34 45-75 0-40-5-75-45-74-42 0-51 32-51 76 0 43 10 73 51 73" id="af"/><g id="g"><use transform="matrix(0.06172839506172839,0,0,0.06172839506172839,0,0)" xlink:href="#ae"/><use transform="matrix(0.06172839506172839,0,0,0.06172839506172839,15.987654320987653,0)" xlink:href="#Y"/><use transform="matrix(0.06172839506172839,0,0,0.06172839506172839,28.333333333333332,0)" xlink:href="#X"/><use transform="matrix(0.06172839506172839,0,0,0.06172839506172839,34.50617283950617,0)" xlink:href="#Y"/><use transform="matrix(0.06172839506172839,0,0,0.06172839506172839,46.85185185185185,0)" xlink:href="#af"/><use transform="matrix(0.06172839506172839,0,0,0.06172839506172839,59.197530864197525,0)" xlink:href="#Y"/><use transform="matrix(0.06172839506172839,0,0,0.06172839506172839,71.5432098765432,0)" xlink:href="#P"/><use transform="matrix(0.06172839506172839,0,0,0.06172839506172839,82.65432098765432,0)" xlink:href="#Q"/></g><path fill="#333" d="M135-194c53 0 70 44 70 98 0 56-19 98-73 100-31 1-45-17-59-34 3 33 2 69 2 105H25l-1-265h48c2 10 0 23 3 31 11-24 29-35 60-35zM114-30c33 0 39-31 40-66 0-38-9-64-40-64-56 0-55 130 0 130" id="ag"/><path fill="#333" d="M135-150c-39-12-60 13-60 57V0H25l-1-190h47c2 13-1 29 3 40 6-28 27-53 61-41v41" id="ah"/><path fill="#333" d="M110-194c64 0 96 36 96 99 0 64-35 99-97 99-61 0-95-36-95-99 0-62 34-99 96-99zm-1 164c35 0 45-28 45-65 0-40-10-65-43-65-34 0-45 26-45 65 0 36 10 65 43 65" id="ai"/><path fill="#333" d="M220-157c-53 9-28 100-34 157h-49v-107c1-27-5-49-29-50C55-147 81-57 75 0H25l-1-190h47c2 12-1 28 3 38 10-53 101-56 108 0 13-22 24-43 59-42 82 1 51 116 57 194h-49v-107c-1-25-5-48-29-50" id="aj"/><path fill="#333" d="M115-3C79 11 28 4 28-45v-112H4v-33h27l15-45h31v45h36v33H77v99c-1 23 16 31 38 25v30" id="ak"/><g id="h"><use transform="matrix(0.04938271604938272,0,0,0.04938271604938272,0,0)" xlink:href="#ag"/><use transform="matrix(0.04938271604938272,0,0,0.04938271604938272,10.814814814814815,0)" xlink:href="#ah"/><use transform="matrix(0.04938271604938272,0,0,0.04938271604938272,17.728395061728396,0)" xlink:href="#ai"/><use transform="matrix(0.04938271604938272,0,0,0.04938271604938272,28.543209876543205,0)" xlink:href="#aj"/><use transform="matrix(0.04938271604938272,0,0,0.04938271604938272,44.34567901234568,0)" xlink:href="#ag"/><use transform="matrix(0.04938271604938272,0,0,0.04938271604938272,55.1604938271605,0)" xlink:href="#ak"/></g><path fill="#333" d="M85 4C-2 5 27-109 22-190h50c7 57-23 150 33 157 60-5 35-97 40-157h50l1 190h-47c-2-12 1-28-3-38-12 25-28 42-61 42" id="al"/><path fill="#333" d="M137-138c1-29-70-34-71-4 15 46 118 7 119 86 1 83-164 76-172 9l43-7c4 19 20 25 44 25 33 8 57-30 24-41C81-84 22-81 20-136c-2-80 154-74 161-7" id="am"/><path fill="#333" d="M185-48c-13 30-37 53-82 52C43 2 14-33 14-96s30-98 90-98c62 0 83 45 84 108H66c0 31 8 55 39 56 18 0 30-7 34-22zm-45-69c5-46-57-63-70-21-2 6-4 13-4 21h74" id="an"/><path fill="#333" d="M135-194c87-1 58 113 63 194h-50c-7-57 23-157-34-157-59 0-34 97-39 157H25l-1-190h47c2 12-1 28 3 38 12-26 28-41 61-42" id="ao"/><path fill="#333" d="M133-34C117-15 103 5 69 4 32 3 11-16 11-54c-1-60 55-63 116-61 1-26-3-47-28-47-18 1-26 9-28 27l-52-2c7-38 36-58 82-57s74 22 75 68l1 82c-1 14 12 18 25 15v27c-30 8-71 5-69-32zm-48 3c29 0 43-24 42-57-32 0-66-3-65 30 0 17 8 27 23 27" id="ap"/><g id="i"><use transform="matrix(0.04938271604938272,0,0,0.04938271604938272,0,0)" xlink:href="#al"/><use transform="matrix(0.04938271604938272,0,0,0.04938271604938272,10.814814814814815,0)" xlink:href="#am"/><use transform="matrix(0.04938271604938272,0,0,0.04938271604938272,20.69135802469136,0)" xlink:href="#an"/><use transform="matrix(0.04938271604938272,0,0,0.04938271604938272,30.567901234567906,0)" xlink:href="#ah"/><use transform="matrix(0.04938271604938272,0,0,0.04938271604938272,37.48148148148149,0)" xlink:href="#ao"/><use transform="matrix(0.04938271604938272,0,0,0.04938271604938272,48.296296296296305,0)" xlink:href="#ap"/><use transform="matrix(0.04938271604938272,0,0,0.04938271604938272,58.17283950617284,0)" xlink:href="#aj"/><use transform="matrix(0.04938271604938272,0,0,0.04938271604938272,73.97530864197532,0)" xlink:href="#an"/></g><g id="j"><use transform="matrix(0.04938271604938272,0,0,0.04938271604938272,0,0)" xlink:href="#ag"/><use transform="matrix(0.04938271604938272,0,0,0.04938271604938272,10.814814814814815,0)" xlink:href="#ah"/><use transform="matrix(0.04938271604938272,0,0,0.04938271604938272,17.728395061728396,0)" xlink:href="#ai"/><use transform="matrix(0.04938271604938272,0,0,0.04938271604938272,28.543209876543205,0)" xlink:href="#aj"/><use transform="matrix(0.04938271604938272,0,0,0.04938271604938272,44.34567901234568,0)" xlink:href="#ag"/><use transform="matrix(0.04938271604938272,0,0,0.04938271604938272,55.1604938271605,0)" xlink:href="#ak"/></g><path fill="#333" d="M231 0h-52l-39-155L100 0H48L-1-190h46L77-45c9-52 24-97 36-145h53l37 145 32-145h46" id="aq"/><path fill="#333" d="M88-194c31-1 46 15 58 34l-1-101h50l1 261h-48c-2-10 0-23-3-31C134-8 116 4 84 4 32 4 16-41 15-95c0-56 19-97 73-99zm17 164c33 0 40-30 41-66 1-37-9-64-41-64s-38 30-39 65c0 43 13 65 39 65" id="ar"/><g id="k"><use transform="matrix(0.04938271604938272,0,0,0.04938271604938272,0,0)" xlink:href="#ag"/><use transform="matrix(0.04938271604938272,0,0,0.04938271604938272,10.814814814814815,0)" xlink:href="#ap"/><use transform="matrix(0.04938271604938272,0,0,0.04938271604938272,20.69135802469136,0)" xlink:href="#am"/><use transform="matrix(0.04938271604938272,0,0,0.04938271604938272,30.567901234567906,0)" xlink:href="#am"/><use transform="matrix(0.04938271604938272,0,0,0.04938271604938272,40.44444444444445,0)" xlink:href="#aq"/><use transform="matrix(0.04938271604938272,0,0,0.04938271604938272,54.27160493827161,0)" xlink:href="#ai"/><use transform="matrix(0.04938271604938272,0,0,0.04938271604938272,65.08641975308642,0)" xlink:href="#ah"/><use transform="matrix(0.04938271604938272,0,0,0.04938271604938272,72,0)" xlink:href="#ar"/></g><g id="l"><use transform="matrix(0.04938271604938272,0,0,0.04938271604938272,0,0)" xlink:href="#an"/><use transform="matrix(0.04938271604938272,0,0,0.04938271604938272,9.876543209876544,0)" xlink:href="#ao"/><use transform="matrix(0.04938271604938272,0,0,0.04938271604938272,20.69135802469136,0)" xlink:href="#ak"/><use transform="matrix(0.04938271604938272,0,0,0.04938271604938272,26.567901234567902,0)" xlink:href="#an"/><use transform="matrix(0.04938271604938272,0,0,0.04938271604938272,36.44444444444445,0)" xlink:href="#ah"/></g><path fill="#333" d="M195-6C206 82 75 100 31 46c-4-6-6-13-8-21l49-6c3 16 16 24 34 25 40 0 42-37 40-79-11 22-30 35-61 35-53 0-70-43-70-97 0-56 18-96 73-97 30 0 46 14 59 34l2-30h47zm-90-29c32 0 41-27 41-63 0-35-9-62-40-62-32 0-39 29-40 63 0 36 9 62 39 62" id="as"/><path fill="#333" d="M25-224v-37h50v37H25zM25 0v-190h50V0H25" id="at"/><path fill="#333" d="M67-93c0 74 22 123 53 168H70C40 30 18-18 18-93s22-123 52-168h50c-32 44-53 94-53 168" id="au"/><path fill="#333" d="M76-54c-1 42 2 86-19 110H24C36 42 46 24 48 0H25v-54h51" id="av"/><path fill="#333" d="M102-93c0 74-22 123-52 168H0C30 29 54-18 53-93c0-74-22-123-53-168h50c30 45 52 94 52 168" id="aw"/><g id="m"><use transform="matrix(0.04938271604938272,0,0,0.04938271604938272,0,0)" xlink:href="#ah"/><use transform="matrix(0.04938271604938272,0,0,0.04938271604938272,6.913580246913581,0)" xlink:href="#an"/><use transform="matrix(0.04938271604938272,0,0,0.04938271604938272,16.790123456790127,0)" xlink:href="#as"/><use transform="matrix(0.04938271604938272,0,0,0.04938271604938272,27.604938271604947,0)" xlink:href="#at"/><use transform="matrix(0.04938271604938272,0,0,0.04938271604938272,32.543209876543216,0)" xlink:href="#am"/><use transform="matrix(0.04938271604938272,0,0,0.04938271604938272,42.41975308641976,0)" xlink:href="#ak"/><use transform="matrix(0.04938271604938272,0,0,0.04938271604938272,48.296296296296305,0)" xlink:href="#an"/><use transform="matrix(0.04938271604938272,0,0,0.04938271604938272,58.17283950617284,0)" xlink:href="#ah"/><use transform="matrix(0.04938271604938272,0,0,0.04938271604938272,65.08641975308643,0)" xlink:href="#au"/><use transform="matrix(0.04938271604938272,0,0,0.04938271604938272,70.96296296296298,0)" xlink:href="#al"/><use transform="matrix(0.04938271604938272,0,0,0.04938271604938272,81.77777777777779,0)" xlink:href="#am"/><use transform="matrix(0.04938271604938272,0,0,0.04938271604938272,91.65432098765433,0)" xlink:href="#an"/><use transform="matrix(0.04938271604938272,0,0,0.04938271604938272,101.53086419753087,0)" xlink:href="#ah"/><use transform="matrix(0.04938271604938272,0,0,0.04938271604938272,108.44444444444446,0)" xlink:href="#ao"/><use transform="matrix(0.04938271604938272,0,0,0.04938271604938272,119.25925925925927,0)" xlink:href="#ap"/><use transform="matrix(0.04938271604938272,0,0,0.04938271604938272,129.1358024691358,0)" xlink:href="#aj"/><use transform="matrix(0.04938271604938272,0,0,0.04938271604938272,144.93827160493828,0)" xlink:href="#an"/><use transform="matrix(0.04938271604938272,0,0,0.04938271604938272,154.81481481481484,0)" xlink:href="#av"/><use transform="matrix(0.04938271604938272,0,0,0.04938271604938272,159.75308641975312,0)" xlink:href="#ag"/><use transform="matrix(0.04938271604938272,0,0,0.04938271604938272,170.56790123456793,0)" xlink:href="#ap"/><use transform="matrix(0.04938271604938272,0,0,0.04938271604938272,180.44444444444446,0)" xlink:href="#am"/><use transform="matrix(0.04938271604938272,0,0,0.04938271604938272,190.32098765432102,0)" xlink:href="#am"/><use transform="matrix(0.04938271604938272,0,0,0.04938271604938272,200.19753086419757,0)" xlink:href="#aq"/><use transform="matrix(0.04938271604938272,0,0,0.04938271604938272,214.02469135802477,0)" xlink:href="#ai"/><use transform="matrix(0.04938271604938272,0,0,0.04938271604938272,224.83950617283958,0)" xlink:href="#ah"/><use transform="matrix(0.04938271604938272,0,0,0.04938271604938272,231.75308641975312,0)" xlink:href="#ar"/><use transform="matrix(0.04938271604938272,0,0,0.04938271604938272,242.56790123456793,0)" xlink:href="#aw"/></g><path fill="#333" d="M-4 44V30h207v14H-4" id="ax"/><path fill="#333" d="M190-63c-7 42-38 67-86 67-59 0-84-38-90-98-12-110 154-137 174-36l-49 2c-2-19-15-32-35-32-30 0-35 28-38 64-6 74 65 87 74 30" id="ay"/><path fill="#333" d="M114-157C55-157 80-60 75 0H25v-261h50l-1 109c12-26 28-41 61-42 86-1 58 113 63 194h-50c-7-57 23-157-34-157" id="az"/><path fill="#333" d="M128 0H69L1-190h53L99-40l48-150h52" id="aA"/><path fill="#333" d="M25 0v-261h50V0H25" id="aB"/><g id="n"><use transform="matrix(0.04938271604938272,0,0,0.04938271604938272,0,0)" xlink:href="#ap"/><use transform="matrix(0.04938271604938272,0,0,0.04938271604938272,9.876543209876544,0)" xlink:href="#ah"/><use transform="matrix(0.04938271604938272,0,0,0.04938271604938272,16.790123456790127,0)" xlink:href="#an"/><use transform="matrix(0.04938271604938272,0,0,0.04938271604938272,26.666666666666668,0)" xlink:href="#ax"/><use transform="matrix(0.04938271604938272,0,0,0.04938271604938272,36.543209876543216,0)" xlink:href="#ay"/><use transform="matrix(0.04938271604938272,0,0,0.04938271604938272,46.41975308641976,0)" xlink:href="#az"/><use transform="matrix(0.04938271604938272,0,0,0.04938271604938272,57.23456790123457,0)" xlink:href="#ap"/><use transform="matrix(0.04938271604938272,0,0,0.04938271604938272,67.11111111111111,0)" xlink:href="#ah"/><use transform="matrix(0.04938271604938272,0,0,0.04938271604938272,74.0246913580247,0)" xlink:href="#am"/><use transform="matrix(0.04938271604938272,0,0,0.04938271604938272,83.90123456790124,0)" xlink:href="#ax"/><use transform="matrix(0.04938271604938272,0,0,0.04938271604938272,93.77777777777779,0)" xlink:href="#aA"/><use transform="matrix(0.04938271604938272,0,0,0.04938271604938272,103.65432098765433,0)" xlink:href="#ap"/><use transform="matrix(0.04938271604938272,0,0,0.04938271604938272,113.53086419753087,0)" xlink:href="#aB"/><use transform="matrix(0.04938271604938272,0,0,0.04938271604938272,118.46913580246914,0)" xlink:href="#at"/><use transform="matrix(0.04938271604938272,0,0,0.04938271604938272,123.40740740740742,0)" xlink:href="#ar"/><use transform="matrix(0.04938271604938272,0,0,0.04938271604938272,134.22222222222223,0)" xlink:href="#au"/><use transform="matrix(0.04938271604938272,0,0,0.04938271604938272,140.09876543209876,0)" xlink:href="#al"/><use transform="matrix(0.04938271604938272,0,0,0.04938271604938272,150.91358024691357,0)" xlink:href="#am"/><use transform="matrix(0.04938271604938272,0,0,0.04938271604938272,160.79012345679013,0)" xlink:href="#an"/><use transform="matrix(0.04938271604938272,0,0,0.04938271604938272,170.66666666666669,0)" xlink:href="#ah"/><use transform="matrix(0.04938271604938272,0,0,0.04938271604938272,177.58024691358025,0)" xlink:href="#ao"/><use transform="matrix(0.04938271604938272,0,0,0.04938271604938272,188.39506172839506,0)" xlink:href="#ap"/><use transform="matrix(0.04938271604938272,0,0,0.04938271604938272,198.2716049382716,0)" xlink:href="#aj"/><use transform="matrix(0.04938271604938272,0,0,0.04938271604938272,214.0740740740741,0)" xlink:href="#an"/><use transform="matrix(0.04938271604938272,0,0,0.04938271604938272,223.95061728395063,0)" xlink:href="#aw"/></g><g id="o"><use transform="matrix(0.04938271604938272,0,0,0.04938271604938272,0,0)" xlink:href="#ap"/><use transform="matrix(0.04938271604938272,0,0,0.04938271604938272,9.876543209876544,0)" xlink:href="#ah"/><use transform="matrix(0.04938271604938272,0,0,0.04938271604938272,16.790123456790127,0)" xlink:href="#an"/><use transform="matrix(0.04938271604938272,0,0,0.04938271604938272,26.666666666666668,0)" xlink:href="#ax"/><use transform="matrix(0.04938271604938272,0,0,0.04938271604938272,36.543209876543216,0)" xlink:href="#ay"/><use transform="matrix(0.04938271604938272,0,0,0.04938271604938272,46.41975308641976,0)" xlink:href="#az"/><use transform="matrix(0.04938271604938272,0,0,0.04938271604938272,57.23456790123457,0)" xlink:href="#ap"/><use transform="matrix(0.04938271604938272,0,0,0.04938271604938272,67.11111111111111,0)" xlink:href="#ah"/><use transform="matrix(0.04938271604938272,0,0,0.04938271604938272,74.0246913580247,0)" xlink:href="#am"/><use transform="matrix(0.04938271604938272,0,0,0.04938271604938272,83.90123456790124,0)" xlink:href="#ax"/><use transform="matrix(0.04938271604938272,0,0,0.04938271604938272,93.77777777777779,0)" xlink:href="#aA"/><use transform="matrix(0.04938271604938272,0,0,0.04938271604938272,103.65432098765433,0)" xlink:href="#ap"/><use transform="matrix(0.04938271604938272,0,0,0.04938271604938272,113.53086419753087,0)" xlink:href="#aB"/><use transform="matrix(0.04938271604938272,0,0,0.04938271604938272,118.46913580246914,0)" xlink:href="#at"/><use transform="matrix(0.04938271604938272,0,0,0.04938271604938272,123.40740740740742,0)" xlink:href="#ar"/><use transform="matrix(0.04938271604938272,0,0,0.04938271604938272,134.22222222222223,0)" xlink:href="#au"/><use transform="matrix(0.04938271604938272,0,0,0.04938271604938272,140.09876543209876,0)" xlink:href="#ag"/><use transform="matrix(0.04938271604938272,0,0,0.04938271604938272,150.91358024691357,0)" xlink:href="#ap"/><use transform="matrix(0.04938271604938272,0,0,0.04938271604938272,160.79012345679013,0)" xlink:href="#am"/><use transform="matrix(0.04938271604938272,0,0,0.04938271604938272,170.66666666666669,0)" xlink:href="#am"/><use transform="matrix(0.04938271604938272,0,0,0.04938271604938272,180.54320987654324,0)" xlink:href="#aq"/><use transform="matrix(0.04938271604938272,0,0,0.04938271604938272,194.3703703703704,0)" xlink:href="#ai"/><use transform="matrix(0.04938271604938272,0,0,0.04938271604938272,205.1851851851852,0)" xlink:href="#ah"/><use transform="matrix(0.04938271604938272,0,0,0.04938271604938272,212.0987654320988,0)" xlink:href="#ar"/><use transform="matrix(0.04938271604938272,0,0,0.04938271604938272,222.9135802469136,0)" xlink:href="#aw"/></g><g id="p"><use transform="matrix(0.06172839506172839,0,0,0.06172839506172839,0,0)" xlink:href="#S"/><use transform="matrix(0.06172839506172839,0,0,0.06172839506172839,14.814814814814813,0)" xlink:href="#ac"/><use transform="matrix(0.06172839506172839,0,0,0.06172839506172839,19.691358024691354,0)" xlink:href="#X"/><use transform="matrix(0.06172839506172839,0,0,0.06172839506172839,25.864197530864192,0)" xlink:href="#Q"/><use transform="matrix(0.06172839506172839,0,0,0.06172839506172839,38.20987654320987,0)" xlink:href="#R"/><use transform="matrix(0.06172839506172839,0,0,0.06172839506172839,45.55555555555555,0)" xlink:href="#W"/><use transform="matrix(0.06172839506172839,0,0,0.06172839506172839,57.90123456790123,0)" xlink:href="#Y"/><use transform="matrix(0.06172839506172839,0,0,0.06172839506172839,70.24691358024691,0)" xlink:href="#X"/><use transform="matrix(0.06172839506172839,0,0,0.06172839506172839,76.41975308641975,0)" xlink:href="#Z"/><use transform="matrix(0.06172839506172839,0,0,0.06172839506172839,81.29629629629629,0)" xlink:href="#aa"/><use transform="matrix(0.06172839506172839,0,0,0.06172839506172839,92.4074074074074,0)" xlink:href="#Q"/></g><path fill="#3a414a" d="M26 75v-336h71v23H56V52h41v23H26" id="aC"/><path fill="#3a414a" d="M210-169c-67 3-38 105-44 169h-31v-121c0-29-5-50-35-48C34-165 62-65 56 0H25l-1-190h30c1 10-1 24 2 32 10-44 99-50 107 0 11-21 27-35 58-36 85-2 47 119 55 194h-31v-121c0-29-5-49-35-48" id="aD"/><g id="q"><use transform="matrix(0.06172839506172839,0,0,0.06172839506172839,0,0)" xlink:href="#aC"/><use transform="matrix(0.06172839506172839,0,0,0.06172839506172839,6.172839506172839,0)" xlink:href="#V"/><use transform="matrix(0.06172839506172839,0,0,0.06172839506172839,18.51851851851852,0)" xlink:href="#P"/><use transform="matrix(0.06172839506172839,0,0,0.06172839506172839,29.62962962962963,0)" xlink:href="#Q"/><use transform="matrix(0.06172839506172839,0,0,0.06172839506172839,41.97530864197531,0)" xlink:href="#R"/><use transform="matrix(0.06172839506172839,0,0,0.06172839506172839,49.32098765432099,0)" xlink:href="#W"/><use transform="matrix(0.06172839506172839,0,0,0.06172839506172839,61.666666666666664,0)" xlink:href="#Y"/><use transform="matrix(0.06172839506172839,0,0,0.06172839506172839,74.01234567901234,0)" xlink:href="#aD"/><use transform="matrix(0.06172839506172839,0,0,0.06172839506172839,92.46913580246913,0)" xlink:href="#Q"/></g><g id="r"><use transform="matrix(0.06172839506172839,0,0,0.06172839506172839,0,0)" xlink:href="#U"/><use transform="matrix(0.06172839506172839,0,0,0.06172839506172839,12.345679012345679,0)" xlink:href="#R"/></g><path fill="#3a414a" d="M115-194c55 1 70 41 70 98S169 2 115 4C84 4 66-9 55-30l1 105H24l-1-265h31l2 30c10-21 28-34 59-34zm-8 174c40 0 45-34 45-75s-6-73-45-74c-42 0-51 32-51 76 0 43 10 73 51 73" id="aE"/><path fill="#3a414a" d="M85-194c31 0 48 13 60 33l-1-100h32l1 261h-30c-2-10 0-23-3-31C134-8 116 4 85 4 32 4 16-35 15-94c0-66 23-100 70-100zm9 24c-40 0-46 34-46 75 0 40 6 74 45 74 42 0 51-32 51-76 0-42-9-74-50-73" id="aF"/><g id="s"><use transform="matrix(0.06172839506172839,0,0,0.06172839506172839,0,0)" xlink:href="#aE"/><use transform="matrix(0.06172839506172839,0,0,0.06172839506172839,12.345679012345679,0)" xlink:href="#Y"/><use transform="matrix(0.06172839506172839,0,0,0.06172839506172839,24.691358024691358,0)" xlink:href="#P"/><use transform="matrix(0.06172839506172839,0,0,0.06172839506172839,35.80246913580247,0)" xlink:href="#P"/><use transform="matrix(0.06172839506172839,0,0,0.06172839506172839,46.91358024691358,0)" xlink:href="#ab"/><use transform="matrix(0.06172839506172839,0,0,0.06172839506172839,62.901234567901234,0)" xlink:href="#U"/><use transform="matrix(0.06172839506172839,0,0,0.06172839506172839,75.24691358024691,0)" xlink:href="#R"/><use transform="matrix(0.06172839506172839,0,0,0.06172839506172839,82.5925925925926,0)" xlink:href="#aF"/></g><path fill="#3a414a" d="M3 75V52h41v-290H3v-23h71V75H3" id="aG"/><g id="t"><use transform="matrix(0.06172839506172839,0,0,0.06172839506172839,0,0)" xlink:href="#Z"/><use transform="matrix(0.06172839506172839,0,0,0.06172839506172839,4.876543209876543,0)" xlink:href="#W"/><use transform="matrix(0.06172839506172839,0,0,0.06172839506172839,17.22222222222222,0)" xlink:href="#aa"/><use transform="matrix(0.06172839506172839,0,0,0.06172839506172839,28.333333333333332,0)" xlink:href="#Y"/><use transform="matrix(0.06172839506172839,0,0,0.06172839506172839,40.67901234567901,0)" xlink:href="#ac"/><use transform="matrix(0.06172839506172839,0,0,0.06172839506172839,45.55555555555556,0)" xlink:href="#Z"/><use transform="matrix(0.06172839506172839,0,0,0.06172839506172839,50.4320987654321,0)" xlink:href="#aF"/><use transform="matrix(0.06172839506172839,0,0,0.06172839506172839,62.77777777777778,0)" xlink:href="#aG"/></g><path fill="#3a414a" d="M234-2c-28 10-62 0-77-18C117 19 8 12 13-65c3-43 29-61 60-76-25-40-17-114 47-108 35 3 59 15 59 50 0 44-40 53-71 69 14 26 32 50 51 72 14-21 24-43 30-72l26 8c-9 33-21 57-38 82 13 13 33 22 57 15v23zM97-151c25-10 52-18 56-48-1-18-13-29-33-29-42 0-39 50-23 77zM42-66c-3 51 71 58 98 28-20-24-41-51-56-80-23 10-40 24-42 52" id="aH"/><use transform="matrix(0.06172839506172839,0,0,0.06172839506172839,0,0)" xlink:href="#aH" id="u"/><g id="v"><use transform="matrix(0.06172839506172839,0,0,0.06172839506172839,0,0)" xlink:href="#aa"/><use transform="matrix(0.06172839506172839,0,0,0.06172839506172839,11.11111111111111,0)" xlink:href="#Y"/><use transform="matrix(0.06172839506172839,0,0,0.06172839506172839,23.45679012345679,0)" xlink:href="#ac"/><use transform="matrix(0.06172839506172839,0,0,0.06172839506172839,28.333333333333336,0)" xlink:href="#Z"/><use transform="matrix(0.06172839506172839,0,0,0.06172839506172839,33.20987654320988,0)" xlink:href="#aF"/><use transform="matrix(0.06172839506172839,0,0,0.06172839506172839,45.55555555555556,0)" xlink:href="#P"/><use transform="matrix(0.06172839506172839,0,0,0.06172839506172839,56.66666666666667,0)" xlink:href="#aG"/></g><path fill="#3a414a" d="M30 0v-248h33v221h125V0H30" id="aI"/><g id="w"><use transform="matrix(0.06172839506172839,0,0,0.06172839506172839,0,0)" xlink:href="#aI"/><use transform="matrix(0.06172839506172839,0,0,0.06172839506172839,12.345679012345679,0)" xlink:href="#U"/><use transform="matrix(0.06172839506172839,0,0,0.06172839506172839,24.691358024691358,0)" xlink:href="#U"/><use transform="matrix(0.06172839506172839,0,0,0.06172839506172839,37.03703703703704,0)" xlink:href="#aE"/></g><g id="x"><use transform="matrix(0.04938271604938272,0,0,0.04938271604938272,0,0)" xlink:href="#al"/><use transform="matrix(0.04938271604938272,0,0,0.04938271604938272,10.814814814814815,0)" xlink:href="#am"/><use transform="matrix(0.04938271604938272,0,0,0.04938271604938272,20.69135802469136,0)" xlink:href="#an"/><use transform="matrix(0.04938271604938272,0,0,0.04938271604938272,30.567901234567906,0)" xlink:href="#ah"/><use transform="matrix(0.04938271604938272,0,0,0.04938271604938272,37.48148148148149,0)" xlink:href="#ao"/><use transform="matrix(0.04938271604938272,0,0,0.04938271604938272,48.296296296296305,0)" xlink:href="#ap"/><use transform="matrix(0.04938271604938272,0,0,0.04938271604938272,58.17283950617284,0)" xlink:href="#aj"/><use transform="matrix(0.04938271604938272,0,0,0.04938271604938272,73.97530864197532,0)" xlink:href="#an"/></g><g id="y"><use transform="matrix(0.04938271604938272,0,0,0.04938271604938272,0,0)" xlink:href="#ai"/><use transform="matrix(0.04938271604938272,0,0,0.04938271604938272,10.814814814814815,0)" xlink:href="#ah"/></g><g id="z"><use transform="matrix(0.04938271604938272,0,0,0.04938271604938272,0,0)" xlink:href="#ag"/><use transform="matrix(0.04938271604938272,0,0,0.04938271604938272,10.814814814814815,0)" xlink:href="#ap"/><use transform="matrix(0.04938271604938272,0,0,0.04938271604938272,20.69135802469136,0)" xlink:href="#am"/><use transform="matrix(0.04938271604938272,0,0,0.04938271604938272,30.567901234567906,0)" xlink:href="#am"/><use transform="matrix(0.04938271604938272,0,0,0.04938271604938272,40.44444444444445,0)" xlink:href="#aq"/><use transform="matrix(0.04938271604938272,0,0,0.04938271604938272,54.27160493827161,0)" xlink:href="#ai"/><use transform="matrix(0.04938271604938272,0,0,0.04938271604938272,65.08641975308642,0)" xlink:href="#ah"/><use transform="matrix(0.04938271604938272,0,0,0.04938271604938272,72,0)" xlink:href="#ar"/></g><g id="A"><use transform="matrix(0.04938271604938272,0,0,0.04938271604938272,0,0)" xlink:href="#ay"/><use transform="matrix(0.04938271604938272,0,0,0.04938271604938272,9.876543209876544,0)" xlink:href="#ah"/><use transform="matrix(0.04938271604938272,0,0,0.04938271604938272,16.790123456790127,0)" xlink:href="#an"/><use transform="matrix(0.04938271604938272,0,0,0.04938271604938272,26.666666666666668,0)" xlink:href="#ap"/><use transform="matrix(0.04938271604938272,0,0,0.04938271604938272,36.543209876543216,0)" xlink:href="#ak"/><use transform="matrix(0.04938271604938272,0,0,0.04938271604938272,42.41975308641976,0)" xlink:href="#at"/><use transform="matrix(0.04938271604938272,0,0,0.04938271604938272,47.35802469135803,0)" xlink:href="#ai"/><use transform="matrix(0.04938271604938272,0,0,0.04938271604938272,58.17283950617284,0)" xlink:href="#ao"/></g><g id="B"><use transform="matrix(0.04938271604938272,0,0,0.04938271604938272,0,0)" xlink:href="#an"/><use transform="matrix(0.04938271604938272,0,0,0.04938271604938272,9.876543209876544,0)" xlink:href="#ah"/><use transform="matrix(0.04938271604938272,0,0,0.04938271604938272,16.790123456790127,0)" xlink:href="#ah"/><use transform="matrix(0.04938271604938272,0,0,0.04938271604938272,23.70370370370371,0)" xlink:href="#ai"/><use transform="matrix(0.04938271604938272,0,0,0.04938271604938272,34.518518518518526,0)" xlink:href="#ah"/></g><g id="C"><use transform="matrix(0.04938271604938272,0,0,0.04938271604938272,0,0)" xlink:href="#aj"/><use transform="matrix(0.04938271604938272,0,0,0.04938271604938272,15.80246913580247,0)" xlink:href="#am"/><use transform="matrix(0.04938271604938272,0,0,0.04938271604938272,25.679012345679016,0)" xlink:href="#as"/></g><path fill="#3a414a" d="M140-251c81 0 123 46 123 126C263-46 219 4 140 4 59 4 17-45 17-125s42-126 123-126zm0 227c63 0 89-41 89-101s-29-99-89-99c-61 0-89 39-89 99S79-25 140-24" id="aJ"/><g id="D"><use transform="matrix(0.06172839506172839,0,0,0.06172839506172839,0,0)" xlink:href="#aJ"/><use transform="matrix(0.06172839506172839,0,0,0.06172839506172839,17.28395061728395,0)" xlink:href="#aE"/><use transform="matrix(0.06172839506172839,0,0,0.06172839506172839,29.629629629629626,0)" xlink:href="#X"/></g><path fill="#3a414a" d="M143 4C61 4 22-44 18-125c-5-107 100-154 193-111 17 8 29 25 37 43l-32 9c-13-25-37-40-76-40-61 0-88 39-88 99 0 61 29 100 91 101 35 0 62-11 79-27v-45h-74v-28h105v86C228-13 192 4 143 4" id="aK"/><path fill="#3a414a" d="M33 0v-248h34V0H33" id="aL"/><path fill="#3a414a" d="M33-154v-36h34v36H33zM33 0v-36h34V0H33" id="aM"/><path fill="#3a414a" d="M179-190L93 31C79 59 56 82 12 73V49c39 6 53-20 64-50L1-190h34L92-34l54-156h33" id="aN"/><g id="E"><use transform="matrix(0.06172839506172839,0,0,0.06172839506172839,0,0)" xlink:href="#aK"/><use transform="matrix(0.06172839506172839,0,0,0.06172839506172839,17.28395061728395,0)" xlink:href="#O"/><use transform="matrix(0.06172839506172839,0,0,0.06172839506172839,33.2716049382716,0)" xlink:href="#aL"/><use transform="matrix(0.06172839506172839,0,0,0.06172839506172839,39.44444444444444,0)" xlink:href="#aM"/><use transform="matrix(0.06172839506172839,0,0,0.06172839506172839,45.617283950617285,0)" xlink:href="#aF"/><use transform="matrix(0.06172839506172839,0,0,0.06172839506172839,57.96296296296296,0)" xlink:href="#Z"/><use transform="matrix(0.06172839506172839,0,0,0.06172839506172839,62.839506172839506,0)" xlink:href="#P"/><use transform="matrix(0.06172839506172839,0,0,0.06172839506172839,73.95061728395062,0)" xlink:href="#aE"/><use transform="matrix(0.06172839506172839,0,0,0.06172839506172839,86.2962962962963,0)" xlink:href="#ac"/><use transform="matrix(0.06172839506172839,0,0,0.06172839506172839,91.17283950617285,0)" xlink:href="#Y"/><use transform="matrix(0.06172839506172839,0,0,0.06172839506172839,103.51851851851853,0)" xlink:href="#aN"/></g><g id="F"><use transform="matrix(0.06172839506172839,0,0,0.06172839506172839,0,0)" xlink:href="#V"/><use transform="matrix(0.06172839506172839,0,0,0.06172839506172839,12.345679012345679,0)" xlink:href="#P"/><use transform="matrix(0.06172839506172839,0,0,0.06172839506172839,23.45679012345679,0)" xlink:href="#Q"/><use transform="matrix(0.06172839506172839,0,0,0.06172839506172839,35.80246913580247,0)" xlink:href="#R"/><use transform="matrix(0.06172839506172839,0,0,0.06172839506172839,43.148148148148145,0)" xlink:href="#W"/><use transform="matrix(0.06172839506172839,0,0,0.06172839506172839,55.49382716049382,0)" xlink:href="#Y"/><use transform="matrix(0.06172839506172839,0,0,0.06172839506172839,67.8395061728395,0)" xlink:href="#aD"/><use transform="matrix(0.06172839506172839,0,0,0.06172839506172839,86.29629629629629,0)" xlink:href="#Q"/></g><g id="G"><use transform="matrix(0.06172839506172839,0,0,0.06172839506172839,0,0)" xlink:href="#Z"/><use transform="matrix(0.06172839506172839,0,0,0.06172839506172839,4.876543209876543,0)" xlink:href="#W"/><use transform="matrix(0.06172839506172839,0,0,0.06172839506172839,17.22222222222222,0)" xlink:href="#aE"/><use transform="matrix(0.06172839506172839,0,0,0.06172839506172839,29.5679012345679,0)" xlink:href="#V"/><use transform="matrix(0.06172839506172839,0,0,0.06172839506172839,41.913580246913575,0)" xlink:href="#X"/></g><g id="H"><use transform="matrix(0.06172839506172839,0,0,0.06172839506172839,0,0)" xlink:href="#P"/><use transform="matrix(0.06172839506172839,0,0,0.06172839506172839,11.11111111111111,0)" xlink:href="#aE"/><use transform="matrix(0.06172839506172839,0,0,0.06172839506172839,23.45679012345679,0)" xlink:href="#Y"/><use transform="matrix(0.06172839506172839,0,0,0.06172839506172839,35.80246913580247,0)" xlink:href="#T"/><use transform="matrix(0.06172839506172839,0,0,0.06172839506172839,46.91358024691358,0)" xlink:href="#Q"/></g><g id="I"><use transform="matrix(0.06172839506172839,0,0,0.06172839506172839,0,0)" xlink:href="#Z"/><use transform="matrix(0.06172839506172839,0,0,0.06172839506172839,4.876543209876543,0)" xlink:href="#W"/></g><g id="J"><use transform="matrix(0.06172839506172839,0,0,0.06172839506172839,0,0)" xlink:href="#R"/><use transform="matrix(0.06172839506172839,0,0,0.06172839506172839,7.345679012345679,0)" xlink:href="#Q"/><use transform="matrix(0.06172839506172839,0,0,0.06172839506172839,19.691358024691358,0)" xlink:href="#aF"/></g><g id="K"><use transform="matrix(0.04938271604938272,0,0,0.04938271604938272,0,0)" xlink:href="#al"/><use transform="matrix(0.04938271604938272,0,0,0.04938271604938272,10.814814814814815,0)" xlink:href="#am"/><use transform="matrix(0.04938271604938272,0,0,0.04938271604938272,20.69135802469136,0)" xlink:href="#an"/><use transform="matrix(0.04938271604938272,0,0,0.04938271604938272,30.567901234567906,0)" xlink:href="#ah"/><use transform="matrix(0.04938271604938272,0,0,0.04938271604938272,37.48148148148149,0)" xlink:href="#ao"/><use transform="matrix(0.04938271604938272,0,0,0.04938271604938272,48.296296296296305,0)" xlink:href="#ap"/><use transform="matrix(0.04938271604938272,0,0,0.04938271604938272,58.17283950617284,0)" xlink:href="#aj"/><use transform="matrix(0.04938271604938272,0,0,0.04938271604938272,73.97530864197532,0)" xlink:href="#an"/></g><g id="L"><use transform="matrix(0.04938271604938272,0,0,0.04938271604938272,0,0)" xlink:href="#ai"/><use transform="matrix(0.04938271604938272,0,0,0.04938271604938272,10.814814814814815,0)" xlink:href="#ah"/></g><g id="M"><use transform="matrix(0.04938271604938272,0,0,0.04938271604938272,0,0)" xlink:href="#ag"/><use transform="matrix(0.04938271604938272,0,0,0.04938271604938272,10.814814814814815,0)" xlink:href="#ap"/><use transform="matrix(0.04938271604938272,0,0,0.04938271604938272,20.69135802469136,0)" xlink:href="#am"/><use transform="matrix(0.04938271604938272,0,0,0.04938271604938272,30.567901234567906,0)" xlink:href="#am"/><use transform="matrix(0.04938271604938272,0,0,0.04938271604938272,40.44444444444445,0)" xlink:href="#aq"/><use transform="matrix(0.04938271604938272,0,0,0.04938271604938272,54.27160493827161,0)" xlink:href="#ai"/><use transform="matrix(0.04938271604938272,0,0,0.04938271604938272,65.08641975308642,0)" xlink:href="#ah"/><use transform="matrix(0.04938271604938272,0,0,0.04938271604938272,72,0)" xlink:href="#ar"/></g><g id="N"><use transform="matrix(0.04938271604938272,0,0,0.04938271604938272,0,0)" xlink:href="#ah"/><use transform="matrix(0.04938271604938272,0,0,0.04938271604938272,6.913580246913581,0)" xlink:href="#an"/><use transform="matrix(0.04938271604938272,0,0,0.04938271604938272,16.790123456790127,0)" xlink:href="#as"/><use transform="matrix(0.04938271604938272,0,0,0.04938271604938272,27.604938271604947,0)" xlink:href="#at"/><use transform="matrix(0.04938271604938272,0,0,0.04938271604938272,32.543209876543216,0)" xlink:href="#am"/><use transform="matrix(0.04938271604938272,0,0,0.04938271604938272,42.41975308641976,0)" xlink:href="#ak"/><use transform="matrix(0.04938271604938272,0,0,0.04938271604938272,48.296296296296305,0)" xlink:href="#an"/><use transform="matrix(0.04938271604938272,0,0,0.04938271604938272,58.17283950617284,0)" xlink:href="#ah"/><use transform="matrix(0.04938271604938272,0,0,0.04938271604938272,65.08641975308643,0)" xlink:href="#an"/><use transform="matrix(0.04938271604938272,0,0,0.04938271604938272,74.96296296296298,0)" xlink:href="#ar"/></g></defs></g></svg>