<svg xmlns="http://www.w3.org/2000/svg" xmlns:xlink="http://www.w3.org/1999/xlink" xmlns:lucid="lucid" width="1740.35" height="1780"><g transform="translate(1680 1160)" lucid:page-tab-id="0_0"><path d="M-1660-1134c0-3.3 2.7-6 6-6h108c3.3 0 6 2.7 6 6v88c0 3.3-2.7 6-6 6h-108c-3.3 0-6-2.7-6-6z" stroke="#ef9c49" stroke-width="2" fill="#fffada"/><use xlink:href="#a" transform="matrix(1,0,0,1,-1660,-1140) translate(36.60993827160494 55.27777777777778)"/><path d="M-1660 506c0-3.3 2.7-6 6-6h108c3.3 0 6 2.7 6 6v88c0 3.3-2.7 6-6 6h-108c-3.3 0-6-2.7-6-6z" stroke="#ef9c49" stroke-width="2" fill="#fffada"/><use xlink:href="#a" transform="matrix(1,0,0,1,-1660,500) translate(36.60993827160494 55.27777777777778)"/><path d="M-1600-1038V498" stroke="#e45e2d" stroke-width="2" fill="none"/><path d="M-1599-1037.97h-2v-1.03h2zM-1599 499h-2v-1.03h2z" stroke="#e45e2d" stroke-width=".05" fill="#e45e2d"/><path d="M-1249.2-1134c0-3.3 2.7-6 6-6h108c3.3 0 6 2.7 6 6v88c0 3.3-2.7 6-6 6h-108c-3.3 0-6-2.7-6-6z" stroke="#ef9c49" stroke-width="2" fill="#fffada"/><use xlink:href="#b" transform="matrix(1,0,0,1,-1249.1999999999998,-1140) translate(5.992654320987649 55.27777777777778)"/><use xlink:href="#c" transform="matrix(1,0,0,1,-1249.1999999999998,-1140) translate(66.42475308641976 55.27777777777778)"/><path d="M-1249.2 506c0-3.3 2.7-6 6-6h108c3.3 0 6 2.7 6 6v88c0 3.3-2.7 6-6 6h-108c-3.3 0-6-2.7-6-6z" stroke="#ef9c49" stroke-width="2" fill="#fffada"/><use xlink:href="#b" transform="matrix(1,0,0,1,-1249.1999999999998,500) translate(5.992654320987649 55.27777777777778)"/><use xlink:href="#c" transform="matrix(1,0,0,1,-1249.1999999999998,500) translate(66.42475308641976 55.27777777777778)"/><path d="M-1189.2-1038V498" stroke="#e45e2d" stroke-width="2" fill="none"/><path d="M-1188.2-1037.97h-2v-1.03h2zM-1188.2 499h-2v-1.03h2z" stroke="#e45e2d" stroke-width=".05" fill="#e45e2d"/><path d="M-920.2-1134c0-3.3 2.7-6 6-6h108c3.3 0 6 2.7 6 6v88c0 3.3-2.7 6-6 6h-108c-3.3 0-6-2.7-6-6z" stroke="#ef9c49" stroke-width="2" fill="#fffada"/><use xlink:href="#d" transform="matrix(1,0,0,1,-920.1999999999999,-1140) translate(32.87537037037037 39.65277777777778)"/><use xlink:href="#e" transform="matrix(1,0,0,1,-920.1999999999999,-1140) translate(12.01117283950616 66.31944444444446)"/><path d="M-920.2 506c0-3.3 2.7-6 6-6h108c3.3 0 6 2.7 6 6v88c0 3.3-2.7 6-6 6h-108c-3.3 0-6-2.7-6-6z" stroke="#ef9c49" stroke-width="2" fill="#fffada"/><use xlink:href="#d" transform="matrix(1,0,0,1,-920.1999999999999,500) translate(32.87537037037037 39.65277777777778)"/><use xlink:href="#e" transform="matrix(1,0,0,1,-920.1999999999999,500) translate(12.01117283950616 66.31944444444446)"/><path d="M-860.2-1038V498" stroke="#e45e2d" stroke-width="2" fill="none"/><path d="M-859.2-1037.97h-2v-1.03h2zM-859.2 499h-2v-1.03h2z" stroke="#e45e2d" stroke-width=".05" fill="#e45e2d"/><path d="M-648.65-1134c0-3.3 2.7-6 6-6h108c3.3 0 6 2.7 6 6v88c0 3.3-2.7 6-6 6h-108c-3.3 0-6-2.7-6-6z" stroke="#ef9c49" stroke-width="2" fill="#fffada"/><use xlink:href="#f" transform="matrix(1,0,0,1,-648.6500000000001,-1140) translate(30.437098765432097 39.65277777777778)"/><use xlink:href="#g" transform="matrix(1,0,0,1,-648.6500000000001,-1140) translate(5.375370370370371 66.31944444444446)"/><use xlink:href="#c" transform="matrix(1,0,0,1,-648.6500000000001,-1140) translate(67.04203703703703 66.31944444444446)"/><path d="M-648.65 506c0-3.3 2.7-6 6-6h108c3.3 0 6 2.7 6 6v88c0 3.3-2.7 6-6 6h-108c-3.3 0-6-2.7-6-6z" stroke="#ef9c49" stroke-width="2" fill="#fffada"/><use xlink:href="#f" transform="matrix(1,0,0,1,-648.6500000000001,500) translate(30.437098765432097 39.65277777777778)"/><use xlink:href="#g" transform="matrix(1,0,0,1,-648.6500000000001,500) translate(5.375370370370371 66.31944444444446)"/><use xlink:href="#c" transform="matrix(1,0,0,1,-648.6500000000001,500) translate(67.04203703703703 66.31944444444446)"/><path d="M-588.65-1038V498" stroke="#e45e2d" stroke-width="2" fill="none"/><path d="M-587.65-1037.97h-2v-1.03h2zM-587.65 499h-2v-1.03h2z" stroke="#e45e2d" stroke-width=".05" fill="#e45e2d"/><path d="M-408.65-1134c0-3.3 2.7-6 6-6h108c3.3 0 6 2.7 6 6v88c0 3.3-2.7 6-6 6h-108c-3.3 0-6-2.7-6-6z" stroke="#ef9c49" stroke-width="2" fill="#fffada"/><use xlink:href="#h" transform="matrix(1,0,0,1,-408.6500000000001,-1140) translate(27.35067901234568 55.27777777777778)"/><path d="M-408.65 506c0-3.3 2.7-6 6-6h108c3.3 0 6 2.7 6 6v88c0 3.3-2.7 6-6 6h-108c-3.3 0-6-2.7-6-6z" stroke="#ef9c49" stroke-width="2" fill="#fffada"/><use xlink:href="#h" transform="matrix(1,0,0,1,-408.6500000000001,500) translate(27.35067901234568 55.27777777777778)"/><path d="M-348.65-1038V498" stroke="#e45e2d" stroke-width="2" fill="none"/><path d="M-347.65-1037.97h-2v-1.03h2zM-347.65 499h-2v-1.03h2z" stroke="#e45e2d" stroke-width=".05" fill="#e45e2d"/><path d="M-79.65-1134c0-3.3 2.7-6 6-6h108c3.3 0 6 2.7 6 6v88c0 3.3-2.7 6-6 6h-108c-3.3 0-6-2.7-6-6z" stroke="#ef9c49" stroke-width="2" fill="#fffada"/><use xlink:href="#i" transform="matrix(1,0,0,1,-79.65000000000009,-1140) translate(8.184012345679017 55.27777777777778)"/><use xlink:href="#j" transform="matrix(1,0,0,1,-79.65000000000009,-1140) translate(61.208703703703705 55.27777777777778)"/><path d="M-79.65 506c0-3.3 2.7-6 6-6h108c3.3 0 6 2.7 6 6v88c0 3.3-2.7 6-6 6h-108c-3.3 0-6-2.7-6-6z" stroke="#ef9c49" stroke-width="2" fill="#fffada"/><use xlink:href="#i" transform="matrix(1,0,0,1,-79.65000000000009,500) translate(8.184012345679017 55.27777777777778)"/><use xlink:href="#j" transform="matrix(1,0,0,1,-79.65000000000009,500) translate(61.208703703703705 55.27777777777778)"/><path d="M-19.65-1038V498" stroke="#e45e2d" stroke-width="2" fill="none"/><path d="M-18.65-1037.97h-2v-1.03h2zM-18.65 499h-2v-1.03h2z" stroke="#e45e2d" stroke-width=".05" fill="#e45e2d"/><path d="M-1620-993.53c0-3.3 2.7-6 6-6h28c3.3 0 6 2.7 6 6v347.77c0 3.3-2.7 6-6 6h-28c-3.3 0-6-2.7-6-6zM-1620-453.88c0-3.3 2.7-6 6-6h28c3.3 0 6 2.7 6 6v567.63c0 3.3-2.7 6-6 6h-28c-3.3 0-6-2.7-6-6zM-1620 205.7c0-3.32 2.7-6 6-6h28c3.3 0 6 2.68 6 6v227.84c0 3.3-2.7 6-6 6h-28c-3.3 0-6-2.7-6-6zM-1209.2-993.53c0-3.3 2.7-6 6-6h28c3.3 0 6 2.7 6 6v347.77c0 3.3-2.7 6-6 6h-28c-3.3 0-6-2.7-6-6zM-1209.2-453.88c0-3.3 2.7-6 6-6h28c3.3 0 6 2.7 6 6v567.63c0 3.3-2.7 6-6 6h-28c-3.3 0-6-2.7-6-6zM-608.65 385.58c0-3.32 2.7-6 6-6h28c3.3 0 6 2.68 6 6v47.96c0 3.3-2.7 6-6 6h-28c-3.3 0-6-2.7-6-6zM-368.65-693.72c0-3.3 2.7-6 6-6h28c3.3 0 6 2.7 6 6v47.96c0 3.3-2.7 6-6 6h-28c-3.3 0-6-2.7-6-6zM-368.65-453.88c0-3.3 2.7-6 6-6h28c3.3 0 6 2.7 6 6v107.93c0 3.3-2.7 6-6 6h-28c-3.3 0-6-2.7-6-6zM-368.65 65.8c0-3.33 2.7-6 6-6h28c3.3 0 6 2.67 6 6v47.95c0 3.3-2.7 6-6 6h-28c-3.3 0-6-2.7-6-6zM-368.65 205.7c0-3.32 2.7-6 6-6h28c3.3 0 6 2.68 6 6v167.88c0 3.3-2.7 6-6 6h-28c-3.3 0-6-2.7-6-6zM-39.65-453.88c0-3.3 2.7-6 6-6h28c3.3 0 6 2.7 6 6v47.96c0 3.32-2.7 6-6 6h-28c-3.3 0-6-2.68-6-6zM-39.65 205.7c0-3.32 2.7-6 6-6h28c3.3 0 6 2.68 6 6v47.96c0 3.3-2.7 6-6 6h-28c-3.3 0-6-2.7-6-6z" stroke="#ef9c49" stroke-width="2" fill="#fffada"/><path d="M-1210.2-939.56h-351.3" stroke="#e45e2d" stroke-width="2" fill="none"/><path d="M-1210.2-938.56h-.03v-2h.03z" stroke="#e45e2d" stroke-width=".05" fill="#e45e2d"/><path d="M-1576.76-939.56l14.26-4.64v9.27z" stroke="#e45e2d" stroke-width="2" fill="#e45e2d"/><use xlink:href="#k" transform="matrix(1,0,0,1,-1453.8098765432098,-964.8982683982682) translate(0 14.222222222222223)"/><use xlink:href="#l" transform="matrix(1,0,0,1,-1453.8098765432098,-964.8982683982682) translate(34.567901234567906 14.222222222222223)"/><path d="M-1210.2-879.6h-351.3" stroke="#e45e2d" stroke-width="2" fill="none"/><path d="M-1210.2-878.6h-.03v-2h.03z" stroke="#e45e2d" stroke-width=".05" fill="#e45e2d"/><path d="M-1576.76-879.6l14.26-4.64v9.27z" stroke="#e45e2d" stroke-width="2" fill="#e45e2d"/><use xlink:href="#k" transform="matrix(1,0,0,1,-1453.2913580246914,-904.9372294372292) translate(0 14.222222222222223)"/><use xlink:href="#m" transform="matrix(1,0,0,1,-1453.2913580246914,-904.9372294372292) translate(34.567901234567906 14.222222222222223)"/><path d="M-1578-819.64l699.3.35" stroke="#e45e2d" stroke-width="2" fill="none"/><path d="M-1577.97-820.64v2h-1.03v-2z" stroke="#e45e2d" stroke-width=".05" fill="#e45e2d"/><path d="M-863.44-819.3l-14.26 4.64v-9.27z" stroke="#e45e2d" stroke-width="2" fill="#e45e2d"/><use xlink:href="#n" transform="matrix(1,0,0,1,-1285.4881936844724,-844.7975728694408) translate(0 14.222222222222223)"/><use xlink:href="#l" transform="matrix(1,0,0,1,-1285.4881936844724,-844.7975728694408) translate(48.296296296296305 14.222222222222223)"/><path d="M-1579-759.68l700.3.3" stroke="#e45e2d" stroke-width="2" fill="none"/><path d="M-1578.97-760.68v2h-.03v-2z" stroke="#e45e2d" stroke-width=".05" fill="#e45e2d"/><path d="M-863.44-759.37l-14.26 4.63V-764z" stroke="#e45e2d" stroke-width="2" fill="#e45e2d"/><use xlink:href="#n" transform="matrix(1,0,0,1,-1285.49249009256,-784.8560245652146) translate(0 14.222222222222223)"/><use xlink:href="#m" transform="matrix(1,0,0,1,-1285.49249009256,-784.8560245652146) translate(48.296296296296305 14.222222222222223)"/><path d="M-859.2-699.44l473 1.1M-859.17-699.44h-1.03" stroke="#e45e2d" stroke-width="2" fill="none"/><path d="M-370.94-698.3l-14.27 4.6v-9.27z" stroke="#e45e2d" stroke-width="2" fill="#e45e2d"/><use xlink:href="#o" transform="matrix(1,0,0,1,-738.2113264118115,-724.1983199824222) translate(0 14.222222222222223)"/><path d="M-328.6-641.18l290.45 1.56" stroke="#e45e2d" stroke-width="2" fill="none"/><path d="M-328.57-642.18v2h-2.03l2-2z" stroke="#e45e2d" stroke-width=".05" fill="#e45e2d"/><path d="M-22.9-639.54l-14.28 4.56.05-9.27z" stroke="#e45e2d" stroke-width="2" fill="#e45e2d"/><use xlink:href="#o" transform="matrix(1,0,0,1,-295.0997051927234,-665.6677954203979) translate(0 14.222222222222223)"/><path d="M-1650-613.77c0-3.32 2.7-6 6-6h88c3.3 0 6 2.68 6 6v8c0 3.3-1.9 7.9-4.24 10.24l-1.52 1.5c-2.34 2.36-6.93 4.26-10.24 4.26h-78c-3.3 0-6-2.7-6-6z" fill="#fffada"/><path d="M-1550-619.77v20l-10 10h-90" stroke="#ef9c49" stroke-width="2" fill="none"/><path d="M-1650-613.77c0-3.32 2.7-6 6-6H24.35c3.3 0 6 2.68 6 6v1067.3c0 3.3-2.7 6-6 6H-1644c-3.3 0-6-2.7-6-6zM-1650 159.72h20m15 0h20m15 0h20m15 0h20m15 0h20m15 0h20m15 0h20m15 0h20m15 0h20m15 0h20m15 0h20m15 0h20m15 0h20m15 0h20m15 0h20m15 0h20m15 0h20m15 0h20m15 0h20m15 0h20m15 0h20m15 0h20m15 0h20m15 0h20m15 0h20m15 0h20m15 0h20m15 0h20m15 0h20m15 0h20m15 0h20m15 0h20m15 0h20m15 0h20m15 0h20m15 0h20m15 0h20m15 0h20m15 0h20m15 0h20m15 0h20m15 0h20m15 0h20m15 0h20m15 0h20m15 0h20m15 0h20m15 0h20m15 0h.35" stroke="#ef9c49" stroke-width="2" fill="none"/><use xlink:href="#p" transform="matrix(1,0,0,1,-1642,-619.7727272727274) translate(0 19.444444444444443)"/><use xlink:href="#q" transform="matrix(1,0,0,1,-1638,-581.7727272727274) translate(0 19.444444444444443)"/><use xlink:href="#r" transform="matrix(1,0,0,1,-1638,-581.7727272727274) translate(110.98765432098764 19.444444444444443)"/><use xlink:href="#s" transform="matrix(1,0,0,1,-1638,-581.7727272727274) translate(136.85185185185185 19.444444444444443)"/><use xlink:href="#t" transform="matrix(1,0,0,1,-1638,-581.7727272727274) translate(237.96296296296296 19.444444444444443)"/><use xlink:href="#u" transform="matrix(1,0,0,1,-1638,-581.7727272727274) translate(315 19.444444444444443)"/><use xlink:href="#q" transform="matrix(1,0,0,1,-1638,167.72077922077904) translate(0 19.444444444444443)"/><use xlink:href="#v" transform="matrix(1,0,0,1,-1638,167.72077922077904) translate(110.98765432098764 19.444444444444443)"/><use xlink:href="#s" transform="matrix(1,0,0,1,-1638,167.72077922077904) translate(131.9753086419753 19.444444444444443)"/><use xlink:href="#u" transform="matrix(1,0,0,1,-1638,167.72077922077904) translate(233.0864197530864 19.444444444444443)"/><path d="M-1630-533.82c0-3.32 2.7-6 6-6h88c3.3 0 6 2.68 6 6v8c0 3.3-1.9 7.9-4.24 10.24l-1.52 1.5c-2.34 2.36-6.93 4.26-10.24 4.26h-78c-3.3 0-6-2.7-6-6z" fill="#fffada"/><path d="M-1530-539.82v20l-10 10h-90" stroke="#ef9c49" stroke-width="2" fill="none"/><path d="M-1630-533.82c0-3.32 2.7-6 6-6H4.35c3.3 0 6 2.68 6 6v667.55c0 3.32-2.7 6-6 6H-1624c-3.3 0-6-2.68-6-6z" stroke="#ef9c49" stroke-width="2" fill="none"/><use xlink:href="#w" transform="matrix(1,0,0,1,-1622,-539.8246753246754) translate(0 19.444444444444443)"/><path d="M-39.7-401.34l-286.13 1.42" stroke="#e45e2d" stroke-width="2" fill="none"/><path d="M-37.7-400.35h-2.02v-2h.03z" stroke="#e45e2d" stroke-width=".05" fill="#e45e2d"/><path d="M-308.52-410.2l-17.17 10.27 17.28 10.1" stroke="#e45e2d" stroke-width="2" fill="none"/><use xlink:href="#x" transform="matrix(1,0,0,1,-328.0648217192448,-436.227525110332) translate(0 14.222222222222223)"/><use xlink:href="#y" transform="matrix(1,0,0,1,-328.0648217192448,-436.227525110332) translate(88.79012345679013 14.222222222222223)"/><use xlink:href="#z" transform="matrix(1,0,0,1,-328.0648217192448,-436.227525110332) translate(111.4567901234568 14.222222222222223)"/><use xlink:href="#A" transform="matrix(1,0,0,1,-328.0648217192448,-436.227525110332) translate(199.20987654320987 14.222222222222223)"/><use xlink:href="#B" transform="matrix(1,0,0,1,-328.0648217192448,-436.227525110332) translate(266.41975308641975 14.222222222222223)"/><path d="M-369.06-341.73l-798.32 1.77" stroke="#e45e2d" stroke-width="2" fill="none"/><path d="M-368.73-342.4l1.67 1.66h-2.02v-2h.26z" stroke="#e45e2d" stroke-width=".05" fill="#e45e2d"/><path d="M-1150.04-350.18l-17.2 10.22 17.24 10.14" stroke="#e45e2d" stroke-width="2" fill="none"/><use xlink:href="#x" transform="matrix(1,0,0,1,-932.2067001880931,-366.17425526197775) translate(0 14.222222222222223)"/><use xlink:href="#y" transform="matrix(1,0,0,1,-932.2067001880931,-366.17425526197775) translate(88.79012345679013 14.222222222222223)"/><use xlink:href="#z" transform="matrix(1,0,0,1,-932.2067001880931,-366.17425526197775) translate(111.4567901234568 14.222222222222223)"/><use xlink:href="#A" transform="matrix(1,0,0,1,-932.2067001880931,-366.17425526197775) translate(199.20987654320987 14.222222222222223)"/><use xlink:href="#B" transform="matrix(1,0,0,1,-932.2067001880931,-366.17425526197775) translate(266.41975308641975 14.222222222222223)"/><path d="M-1210.2-280h-351.3" stroke="#e45e2d" stroke-width="2" fill="none"/><path d="M-1210.2-279h-.03v-2h.03z" stroke="#e45e2d" stroke-width=".05" fill="#e45e2d"/><path d="M-1576.76-280l14.26-4.63v9.27z" stroke="#e45e2d" stroke-width="2" fill="#e45e2d"/><use xlink:href="#x" transform="matrix(1,0,0,1,-1579.8345679012345,-309.9620947424642) translate(0 14.222222222222223)"/><use xlink:href="#y" transform="matrix(1,0,0,1,-1579.8345679012345,-309.9620947424642) translate(88.79012345679013 14.222222222222223)"/><use xlink:href="#z" transform="matrix(1,0,0,1,-1579.8345679012345,-309.9620947424642) translate(111.4567901234568 14.222222222222223)"/><use xlink:href="#A" transform="matrix(1,0,0,1,-1579.8345679012345,-309.9620947424642) translate(199.20987654320987 14.222222222222223)"/><use xlink:href="#C" transform="matrix(1,0,0,1,-1579.8345679012345,-309.9620947424642) translate(266.41975308641975 14.222222222222223)"/><use xlink:href="#D" transform="matrix(1,0,0,1,-1579.8345679012345,-309.9620947424642) translate(323.60493827160496 14.222222222222223)"/><use xlink:href="#E" transform="matrix(1,0,0,1,-1579.8345679012345,-309.9620947424642) translate(369.97530864197535 14.222222222222223)"/><path d="M-1442.92-254c0-3.32 2.68-6 6-6h88c3.3 0 6 2.68 6 6v8c0 3.3-1.9 7.9-4.25 10.24l-1.5 1.5c-2.36 2.35-6.94 4.25-10.25 4.25h-78c-3.32 0-6-2.7-6-6z" fill="#fffada"/><path d="M-1342.92-260v20l-10 10h-90" stroke="#ef9c49" stroke-width="2" fill="none"/><path d="M-1442.92-254c0-3.32 2.68-6 6-6h600.72c3.3 0 6 2.68 6 6v127.9c0 3.32-2.7 6-6 6h-600.72c-3.32 0-6-2.68-6-6z" stroke="#ef9c49" stroke-width="2" fill="none"/><use xlink:href="#F" transform="matrix(1,0,0,1,-1434.925,-260.00649350649354) translate(0 19.444444444444443)"/><path d="M-1422.92-200.08h455.45l12 12v48h-467.45z" stroke="#ef9c49" stroke-width="2" fill="#fffada"/><path d="M-967.47-199.13v11.05h11.04" stroke="#ef9c49" stroke-width="2" fill="#fffada"/><g><use xlink:href="#G" transform="matrix(1,0,0,1,-1417.9249999999997,-195.08441558441564) translate(24.66049382716048 17.77777777777778)"/><use xlink:href="#H" transform="matrix(1,0,0,1,-1417.9249999999997,-195.08441558441564) translate(145.46296296296296 17.77777777777778)"/><use xlink:href="#r" transform="matrix(1,0,0,1,-1417.9249999999997,-195.08441558441564) translate(250.27777777777777 17.77777777777778)"/><use xlink:href="#s" transform="matrix(1,0,0,1,-1417.9249999999997,-195.08441558441564) translate(276.141975308642 17.77777777777778)"/><use xlink:href="#I" transform="matrix(1,0,0,1,-1417.9249999999997,-195.08441558441564) translate(377.2530864197531 17.77777777777778)"/><use xlink:href="#J" transform="matrix(1,0,0,1,-1417.9249999999997,-195.08441558441564) translate(168.5679012345679 44.44444444444444)"/><use xlink:href="#K" transform="matrix(1,0,0,1,-1417.9249999999997,-195.08441558441564) translate(234 44.44444444444444)"/><use xlink:href="#L" transform="matrix(1,0,0,1,-1417.9249999999997,-195.08441558441564) translate(257.39506172839504 44.44444444444444)"/></g><path d="M-1210.2-60.14h-351.3" stroke="#e45e2d" stroke-width="2" fill="none"/><path d="M-1210.2-59.14h-.03v-2h.03z" stroke="#e45e2d" stroke-width=".05" fill="#e45e2d"/><path d="M-1576.76-60.14l14.26-4.63v9.27z" stroke="#e45e2d" stroke-width="2" fill="#e45e2d"/><g><use xlink:href="#k" transform="matrix(1,0,0,1,-1509.0197530864198,-85.46969696969701) translate(0 14.222222222222223)"/><use xlink:href="#M" transform="matrix(1,0,0,1,-1509.0197530864198,-85.46969696969701) translate(34.567901234567906 14.222222222222223)"/><use xlink:href="#N" transform="matrix(1,0,0,1,-1509.0197530864198,-85.46969696969701) translate(123.35802469135803 14.222222222222223)"/><use xlink:href="#O" transform="matrix(1,0,0,1,-1509.0197530864198,-85.46969696969701) translate(146.02469135802468 14.222222222222223)"/></g><path d="M-1579-.18l700.3-.17" stroke="#e45e2d" stroke-width="2" fill="none"/><path d="M-1578.97.82h-.03v-2h.03z" stroke="#e45e2d" stroke-width=".05" fill="#e45e2d"/><path d="M-863.44-.35L-877.7 4.3V-5z" stroke="#e45e2d" stroke-width="2" fill="#e45e2d"/><g><use xlink:href="#n" transform="matrix(1,0,0,1,-1341.6615305125401,-25.59628654071541) translate(0 14.222222222222223)"/><use xlink:href="#M" transform="matrix(1,0,0,1,-1341.6615305125401,-25.59628654071541) translate(48.296296296296305 14.222222222222223)"/><use xlink:href="#N" transform="matrix(1,0,0,1,-1341.6615305125401,-25.59628654071541) translate(137.08641975308643 14.222222222222223)"/><use xlink:href="#O" transform="matrix(1,0,0,1,-1341.6615305125401,-25.59628654071541) translate(159.7530864197531 14.222222222222223)"/></g><path d="M-859.2 59.57l473 1.58M-859.17 59.57h-1.03" stroke="#e45e2d" stroke-width="2" fill="none"/><path d="M-370.94 61.2l-14.28 4.6.03-9.28z" stroke="#e45e2d" stroke-width="2" fill="#e45e2d"/><g><use xlink:href="#o" transform="matrix(1,0,0,1,-736.9644979639958,35.06494713805873) translate(0 14.222222222222223)"/></g><path d="M-328.6 118.32l290.45 1.1" stroke="#e45e2d" stroke-width="2" fill="none"/><path d="M-328.57 117.33v2h-2.03l2-2z" stroke="#e45e2d" stroke-width=".05" fill="#e45e2d"/><path d="M-22.9 119.48l-14.27 4.58.04-9.27z" stroke="#e45e2d" stroke-width="2" fill="#e45e2d"/><g><use xlink:href="#o" transform="matrix(1,0,0,1,-297.0775746191198,93.58288956382995) translate(0 14.222222222222223)"/></g><path d="M-39.7 258.23l-269.45-.07" stroke="#e45e2d" stroke-width="2" fill="none"/><path d="M-39.7 257.23l2 2h-2.02v-2z" stroke="#e45e2d" stroke-width=".05" fill="#e45e2d"/><path d="M-324.4 258.16l14.25-4.63v9.27z" stroke="#e45e2d" stroke-width="2" fill="#e45e2d"/><g><use xlink:href="#x" transform="matrix(1,0,0,1,-306.13531148369213,232.8602267898192) translate(0 14.222222222222223)"/><use xlink:href="#P" transform="matrix(1,0,0,1,-306.13531148369213,232.8602267898192) translate(88.79012345679013 14.222222222222223)"/><use xlink:href="#z" transform="matrix(1,0,0,1,-306.13531148369213,232.8602267898192) translate(106.51851851851853 14.222222222222223)"/><use xlink:href="#B" transform="matrix(1,0,0,1,-306.13531148369213,232.8602267898192) translate(194.27160493827162 14.222222222222223)"/></g><path d="M-370.65 321.1l-471.05-1.8" stroke="#e45e2d" stroke-width="2" fill="none"/><path d="M-369.65 320.12v2h-1.03v-2z" stroke="#e45e2d" stroke-width=".05" fill="#e45e2d"/><path d="M-856.96 319.25l14.28-4.58-.04 9.27z" stroke="#e45e2d" stroke-width="2" fill="#e45e2d"/><g><use xlink:href="#x" transform="matrix(1,0,0,1,-733.6798079010757,294.8501431256597) translate(0 14.222222222222223)"/><use xlink:href="#P" transform="matrix(1,0,0,1,-733.6798079010757,294.8501431256597) translate(88.79012345679013 14.222222222222223)"/><use xlink:href="#z" transform="matrix(1,0,0,1,-733.6798079010757,294.8501431256597) translate(106.51851851851853 14.222222222222223)"/><use xlink:href="#B" transform="matrix(1,0,0,1,-733.6798079010757,294.8501431256597) translate(194.27160493827162 14.222222222222223)"/></g><path d="M-859.2 379.16l233 1.7M-859.17 379.16h-1.03" stroke="#e45e2d" stroke-width="2" fill="none"/><path d="M-610.93 380.98l-14.3 4.53.06-9.26z" stroke="#e45e2d" stroke-width="2" fill="#e45e2d"/><g><use xlink:href="#Q" transform="matrix(1,0,0,1,-824.9144507985212,354.76621286779283) translate(0 14.222222222222223)"/></g><path d="M-608.7 438.1l-953.14-.6" stroke="#e45e2d" stroke-width="2" fill="none"/><path d="M-608.7 437.1l2 2h-2.03v-2z" stroke="#e45e2d" stroke-width=".05" fill="#e45e2d"/><path d="M-1577.1 437.5l14.27-4.62v9.27z" stroke="#e45e2d" stroke-width="2" fill="#e45e2d"/><g><use xlink:href="#R" transform="matrix(1,0,0,1,-1137.7313948091164,412.4743863426194) translate(0 14.222222222222223)"/></g><defs><path fill="#8b412b" d="M232-93c-1 65-40 97-104 97C67 4 28-28 28-90v-158h33c8 89-33 224 67 224 102 0 64-133 71-224h33v155" id="S"/><path fill="#8b412b" d="M135-143c-3-34-86-38-87 0 15 53 115 12 119 90S17 21 10-45l28-5c4 36 97 45 98 0-10-56-113-15-118-90-4-57 82-63 122-42 12 7 21 19 24 35" id="T"/><path fill="#8b412b" d="M100-194c63 0 86 42 84 106H49c0 40 14 67 53 68 26 1 43-12 49-29l28 8c-11 28-37 45-77 45C44 4 14-33 15-96c1-61 26-98 85-98zm52 81c6-60-76-77-97-28-3 7-6 17-6 28h103" id="U"/><path fill="#8b412b" d="M114-163C36-179 61-72 57 0H25l-1-190h30c1 12-1 29 2 39 6-27 23-49 58-41v29" id="V"/><g id="a"><use transform="matrix(0.06172839506172839,0,0,0.06172839506172839,0,0)" xlink:href="#S"/><use transform="matrix(0.06172839506172839,0,0,0.06172839506172839,15.987654320987653,0)" xlink:href="#T"/><use transform="matrix(0.06172839506172839,0,0,0.06172839506172839,27.098765432098766,0)" xlink:href="#U"/><use transform="matrix(0.06172839506172839,0,0,0.06172839506172839,39.44444444444444,0)" xlink:href="#V"/></g><path fill="#8b412b" d="M30 0v-248h33v221h125V0H30" id="W"/><path fill="#8b412b" d="M100-194c62-1 85 37 85 99 1 63-27 99-86 99S16-35 15-95c0-66 28-99 85-99zM99-20c44 1 53-31 53-75 0-43-8-75-51-75s-53 32-53 75 10 74 51 75" id="X"/><path fill="#8b412b" d="M177-190C167-65 218 103 67 71c-23-6-38-20-44-43l32-5c15 47 100 32 89-28v-30C133-14 115 1 83 1 29 1 15-40 15-95c0-56 16-97 71-98 29-1 48 16 59 35 1-10 0-23 2-32h30zM94-22c36 0 50-32 50-73 0-42-14-75-50-75-39 0-46 34-46 75s6 73 46 73" id="Y"/><path fill="#8b412b" d="M24-231v-30h32v30H24zM24 0v-190h32V0H24" id="Z"/><path fill="#8b412b" d="M117-194c89-4 53 116 60 194h-32v-121c0-31-8-49-39-48C34-167 62-67 57 0H25l-1-190h30c1 10-1 24 2 32 11-22 29-35 61-36" id="aa"/><g id="b"><use transform="matrix(0.06172839506172839,0,0,0.06172839506172839,0,0)" xlink:href="#W"/><use transform="matrix(0.06172839506172839,0,0,0.06172839506172839,12.345679012345679,0)" xlink:href="#X"/><use transform="matrix(0.06172839506172839,0,0,0.06172839506172839,24.691358024691358,0)" xlink:href="#Y"/><use transform="matrix(0.06172839506172839,0,0,0.06172839506172839,37.03703703703704,0)" xlink:href="#Z"/><use transform="matrix(0.06172839506172839,0,0,0.06172839506172839,41.91358024691358,0)" xlink:href="#aa"/></g><path fill="#8b412b" d="M137 0h-34L2-248h35l83 218 83-218h36" id="ab"/><path fill="#8b412b" d="M206 0h-36l-40-164L89 0H53L-1-190h32L70-26l43-164h34l41 164 42-164h31" id="ac"/><g id="c"><use transform="matrix(0.06172839506172839,0,0,0.06172839506172839,0,0)" xlink:href="#ab"/><use transform="matrix(0.06172839506172839,0,0,0.06172839506172839,14.382716049382715,0)" xlink:href="#Z"/><use transform="matrix(0.06172839506172839,0,0,0.06172839506172839,19.25925925925926,0)" xlink:href="#U"/><use transform="matrix(0.06172839506172839,0,0,0.06172839506172839,31.604938271604937,0)" xlink:href="#ac"/></g><g id="d"><use transform="matrix(0.06172839506172839,0,0,0.06172839506172839,0,0)" xlink:href="#W"/><use transform="matrix(0.06172839506172839,0,0,0.06172839506172839,12.345679012345679,0)" xlink:href="#X"/><use transform="matrix(0.06172839506172839,0,0,0.06172839506172839,24.691358024691358,0)" xlink:href="#Y"/><use transform="matrix(0.06172839506172839,0,0,0.06172839506172839,37.03703703703704,0)" xlink:href="#Z"/><use transform="matrix(0.06172839506172839,0,0,0.06172839506172839,41.91358024691358,0)" xlink:href="#aa"/></g><path fill="#8b412b" d="M212-179c-10-28-35-45-73-45-59 0-87 40-87 99 0 60 29 101 89 101 43 0 62-24 78-52l27 14C228-24 195 4 139 4 59 4 22-46 18-125c-6-104 99-153 187-111 19 9 31 26 39 46" id="ad"/><path fill="#8b412b" d="M59-47c-2 24 18 29 38 22v24C64 9 27 4 27-40v-127H5v-23h24l9-43h21v43h35v23H59v120" id="ae"/><path fill="#8b412b" d="M24 0v-261h32V0H24" id="af"/><g id="e"><use transform="matrix(0.06172839506172839,0,0,0.06172839506172839,0,0)" xlink:href="#ad"/><use transform="matrix(0.06172839506172839,0,0,0.06172839506172839,15.987654320987653,0)" xlink:href="#X"/><use transform="matrix(0.06172839506172839,0,0,0.06172839506172839,28.333333333333332,0)" xlink:href="#aa"/><use transform="matrix(0.06172839506172839,0,0,0.06172839506172839,40.67901234567901,0)" xlink:href="#ae"/><use transform="matrix(0.06172839506172839,0,0,0.06172839506172839,46.851851851851855,0)" xlink:href="#V"/><use transform="matrix(0.06172839506172839,0,0,0.06172839506172839,54.19753086419753,0)" xlink:href="#X"/><use transform="matrix(0.06172839506172839,0,0,0.06172839506172839,66.54320987654322,0)" xlink:href="#af"/><use transform="matrix(0.06172839506172839,0,0,0.06172839506172839,71.41975308641976,0)" xlink:href="#af"/><use transform="matrix(0.06172839506172839,0,0,0.06172839506172839,76.2962962962963,0)" xlink:href="#U"/><use transform="matrix(0.06172839506172839,0,0,0.06172839506172839,88.64197530864199,0)" xlink:href="#V"/></g><path fill="#8b412b" d="M197 0v-115H63V0H30v-248h33v105h134v-105h34V0h-34" id="ag"/><path fill="#8b412b" d="M210-169c-67 3-38 105-44 169h-31v-121c0-29-5-50-35-48C34-165 62-65 56 0H25l-1-190h30c1 10-1 24 2 32 10-44 99-50 107 0 11-21 27-35 58-36 85-2 47 119 55 194h-31v-121c0-29-5-49-35-48" id="ah"/><g id="f"><use transform="matrix(0.06172839506172839,0,0,0.06172839506172839,0,0)" xlink:href="#ag"/><use transform="matrix(0.06172839506172839,0,0,0.06172839506172839,15.987654320987653,0)" xlink:href="#X"/><use transform="matrix(0.06172839506172839,0,0,0.06172839506172839,28.333333333333332,0)" xlink:href="#ah"/><use transform="matrix(0.06172839506172839,0,0,0.06172839506172839,46.79012345679012,0)" xlink:href="#U"/></g><path fill="#8b412b" d="M240 0l2-218c-23 76-54 145-80 218h-23L58-218 59 0H30v-248h44l77 211c21-75 51-140 76-211h43V0h-30" id="ai"/><path fill="#8b412b" d="M84 4C-5 8 30-112 23-190h32v120c0 31 7 50 39 49 72-2 45-101 50-169h31l1 190h-30c-1-10 1-25-2-33-11 22-28 36-60 37" id="aj"/><g id="g"><use transform="matrix(0.06172839506172839,0,0,0.06172839506172839,0,0)" xlink:href="#ai"/><use transform="matrix(0.06172839506172839,0,0,0.06172839506172839,18.456790123456788,0)" xlink:href="#U"/><use transform="matrix(0.06172839506172839,0,0,0.06172839506172839,30.80246913580247,0)" xlink:href="#aa"/><use transform="matrix(0.06172839506172839,0,0,0.06172839506172839,43.148148148148145,0)" xlink:href="#aj"/></g><path fill="#8b412b" d="M185-189c-5-48-123-54-124 2 14 75 158 14 163 119 3 78-121 87-175 55-17-10-28-26-33-46l33-7c5 56 141 63 141-1 0-78-155-14-162-118-5-82 145-84 179-34 5 7 8 16 11 25" id="ak"/><path fill="#8b412b" d="M108 0H70L1-190h34L89-25l56-165h34" id="al"/><g id="h"><use transform="matrix(0.06172839506172839,0,0,0.06172839506172839,0,0)" xlink:href="#ak"/><use transform="matrix(0.06172839506172839,0,0,0.06172839506172839,14.814814814814813,0)" xlink:href="#U"/><use transform="matrix(0.06172839506172839,0,0,0.06172839506172839,27.160493827160494,0)" xlink:href="#V"/><use transform="matrix(0.06172839506172839,0,0,0.06172839506172839,34.50617283950617,0)" xlink:href="#al"/><use transform="matrix(0.06172839506172839,0,0,0.06172839506172839,45.61728395061728,0)" xlink:href="#U"/><use transform="matrix(0.06172839506172839,0,0,0.06172839506172839,57.962962962962955,0)" xlink:href="#V"/></g><path fill="#8b412b" d="M30-248c118-7 216 8 213 122C240-48 200 0 122 0H30v-248zM63-27c89 8 146-16 146-99s-60-101-146-95v194" id="am"/><path fill="#8b412b" d="M141-36C126-15 110 5 73 4 37 3 15-17 15-53c-1-64 63-63 125-63 3-35-9-54-41-54-24 1-41 7-42 31l-33-3c5-37 33-52 76-52 45 0 72 20 72 64v82c-1 20 7 32 28 27v20c-31 9-61-2-59-35zM48-53c0 20 12 33 32 33 41-3 63-29 60-74-43 2-92-5-92 41" id="an"/><g id="i"><use transform="matrix(0.06172839506172839,0,0,0.06172839506172839,0,0)" xlink:href="#am"/><use transform="matrix(0.06172839506172839,0,0,0.06172839506172839,15.987654320987653,0)" xlink:href="#an"/><use transform="matrix(0.06172839506172839,0,0,0.06172839506172839,28.333333333333332,0)" xlink:href="#ae"/><use transform="matrix(0.06172839506172839,0,0,0.06172839506172839,34.50617283950617,0)" xlink:href="#an"/></g><path fill="#8b412b" d="M160-131c35 5 61 23 61 61C221 17 115-2 30 0v-248c76 3 177-17 177 60 0 33-19 50-47 57zm-97-11c50-1 110 9 110-42 0-47-63-36-110-37v79zm0 115c55-2 124 14 124-45 0-56-70-42-124-44v89" id="ao"/><g id="j"><use transform="matrix(0.06172839506172839,0,0,0.06172839506172839,0,0)" xlink:href="#ao"/><use transform="matrix(0.06172839506172839,0,0,0.06172839506172839,14.814814814814813,0)" xlink:href="#an"/><use transform="matrix(0.06172839506172839,0,0,0.06172839506172839,27.160493827160494,0)" xlink:href="#T"/><use transform="matrix(0.06172839506172839,0,0,0.06172839506172839,38.27160493827161,0)" xlink:href="#U"/></g><path fill="#8b412b" d="M133-34C117-15 103 5 69 4 32 3 11-16 11-54c-1-60 55-63 116-61 1-26-3-47-28-47-18 1-26 9-28 27l-52-2c7-38 36-58 82-57s74 22 75 68l1 82c-1 14 12 18 25 15v27c-30 8-71 5-69-32zm-48 3c29 0 43-24 42-57-32 0-66-3-65 30 0 17 8 27 23 27" id="ap"/><path fill="#8b412b" d="M137-138c1-29-70-34-71-4 15 46 118 7 119 86 1 83-164 76-172 9l43-7c4 19 20 25 44 25 33 8 57-30 24-41C81-84 22-81 20-136c-2-80 154-74 161-7" id="aq"/><path fill="#8b412b" d="M147 0L96-86 75-71V0H25v-261h50v150l67-79h53l-66 74L201 0h-54" id="ar"/><g id="k"><use transform="matrix(0.04938271604938272,0,0,0.04938271604938272,0,0)" xlink:href="#ap"/><use transform="matrix(0.04938271604938272,0,0,0.04938271604938272,9.876543209876544,0)" xlink:href="#aq"/><use transform="matrix(0.04938271604938272,0,0,0.04938271604938272,19.75308641975309,0)" xlink:href="#ar"/></g><path fill="#8b412b" d="M85 4C-2 5 27-109 22-190h50c7 57-23 150 33 157 60-5 35-97 40-157h50l1 190h-47c-2-12 1-28-3-38-12 25-28 42-61 42" id="as"/><path fill="#8b412b" d="M185-48c-13 30-37 53-82 52C43 2 14-33 14-96s30-98 90-98c62 0 83 45 84 108H66c0 31 8 55 39 56 18 0 30-7 34-22zm-45-69c5-46-57-63-70-21-2 6-4 13-4 21h74" id="at"/><path fill="#8b412b" d="M135-150c-39-12-60 13-60 57V0H25l-1-190h47c2 13-1 29 3 40 6-28 27-53 61-41v41" id="au"/><path fill="#8b412b" d="M135-194c87-1 58 113 63 194h-50c-7-57 23-157-34-157-59 0-34 97-39 157H25l-1-190h47c2 12-1 28 3 38 12-26 28-41 61-42" id="av"/><path fill="#8b412b" d="M220-157c-53 9-28 100-34 157h-49v-107c1-27-5-49-29-50C55-147 81-57 75 0H25l-1-190h47c2 12-1 28 3 38 10-53 101-56 108 0 13-22 24-43 59-42 82 1 51 116 57 194h-49v-107c-1-25-5-48-29-50" id="aw"/><g id="l"><use transform="matrix(0.04938271604938272,0,0,0.04938271604938272,0,0)" xlink:href="#as"/><use transform="matrix(0.04938271604938272,0,0,0.04938271604938272,10.814814814814815,0)" xlink:href="#aq"/><use transform="matrix(0.04938271604938272,0,0,0.04938271604938272,20.69135802469136,0)" xlink:href="#at"/><use transform="matrix(0.04938271604938272,0,0,0.04938271604938272,30.567901234567906,0)" xlink:href="#au"/><use transform="matrix(0.04938271604938272,0,0,0.04938271604938272,37.48148148148149,0)" xlink:href="#av"/><use transform="matrix(0.04938271604938272,0,0,0.04938271604938272,48.296296296296305,0)" xlink:href="#ap"/><use transform="matrix(0.04938271604938272,0,0,0.04938271604938272,58.17283950617284,0)" xlink:href="#aw"/><use transform="matrix(0.04938271604938272,0,0,0.04938271604938272,73.97530864197532,0)" xlink:href="#at"/></g><path fill="#8b412b" d="M135-194c53 0 70 44 70 98 0 56-19 98-73 100-31 1-45-17-59-34 3 33 2 69 2 105H25l-1-265h48c2 10 0 23 3 31 11-24 29-35 60-35zM114-30c33 0 39-31 40-66 0-38-9-64-40-64-56 0-55 130 0 130" id="ax"/><path fill="#8b412b" d="M231 0h-52l-39-155L100 0H48L-1-190h46L77-45c9-52 24-97 36-145h53l37 145 32-145h46" id="ay"/><path fill="#8b412b" d="M110-194c64 0 96 36 96 99 0 64-35 99-97 99-61 0-95-36-95-99 0-62 34-99 96-99zm-1 164c35 0 45-28 45-65 0-40-10-65-43-65-34 0-45 26-45 65 0 36 10 65 43 65" id="az"/><path fill="#8b412b" d="M88-194c31-1 46 15 58 34l-1-101h50l1 261h-48c-2-10 0-23-3-31C134-8 116 4 84 4 32 4 16-41 15-95c0-56 19-97 73-99zm17 164c33 0 40-30 41-66 1-37-9-64-41-64s-38 30-39 65c0 43 13 65 39 65" id="aA"/><g id="m"><use transform="matrix(0.04938271604938272,0,0,0.04938271604938272,0,0)" xlink:href="#ax"/><use transform="matrix(0.04938271604938272,0,0,0.04938271604938272,10.814814814814815,0)" xlink:href="#ap"/><use transform="matrix(0.04938271604938272,0,0,0.04938271604938272,20.69135802469136,0)" xlink:href="#aq"/><use transform="matrix(0.04938271604938272,0,0,0.04938271604938272,30.567901234567906,0)" xlink:href="#aq"/><use transform="matrix(0.04938271604938272,0,0,0.04938271604938272,40.44444444444445,0)" xlink:href="#ay"/><use transform="matrix(0.04938271604938272,0,0,0.04938271604938272,54.27160493827161,0)" xlink:href="#az"/><use transform="matrix(0.04938271604938272,0,0,0.04938271604938272,65.08641975308642,0)" xlink:href="#au"/><use transform="matrix(0.04938271604938272,0,0,0.04938271604938272,72,0)" xlink:href="#aA"/></g><path fill="#8b412b" d="M115-3C79 11 28 4 28-45v-112H4v-33h27l15-45h31v45h36v33H77v99c-1 23 16 31 38 25v30" id="aB"/><g id="n"><use transform="matrix(0.04938271604938272,0,0,0.04938271604938272,0,0)" xlink:href="#at"/><use transform="matrix(0.04938271604938272,0,0,0.04938271604938272,9.876543209876544,0)" xlink:href="#av"/><use transform="matrix(0.04938271604938272,0,0,0.04938271604938272,20.69135802469136,0)" xlink:href="#aB"/><use transform="matrix(0.04938271604938272,0,0,0.04938271604938272,26.567901234567902,0)" xlink:href="#at"/><use transform="matrix(0.04938271604938272,0,0,0.04938271604938272,36.44444444444445,0)" xlink:href="#au"/></g><path fill="#8b412b" d="M230 0l2-204L168 0h-37L68-204 70 0H24v-248h70l56 185 57-185h69V0h-46" id="aC"/><path fill="#8b412b" d="M190-63c-7 42-38 67-86 67-59 0-84-38-90-98-12-110 154-137 174-36l-49 2c-2-19-15-32-35-32-30 0-35 28-38 64-6 74 65 87 74 30" id="aD"/><path fill="#8b412b" d="M114-157C55-157 80-60 75 0H25v-261h50l-1 109c12-26 28-41 61-42 86-1 58 113 63 194h-50c-7-57 23-157-34-157" id="aE"/><path fill="#8b412b" d="M67-93c0 74 22 123 53 168H70C40 30 18-18 18-93s22-123 52-168h50c-32 44-53 94-53 168" id="aF"/><path fill="#8b412b" d="M76-54c-1 42 2 86-19 110H24C36 42 46 24 48 0H25v-54h51" id="aG"/><path fill="#8b412b" d="M102-93c0 74-22 123-52 168H0C30 29 54-18 53-93c0-74-22-123-53-168h50c30 45 52 94 52 168" id="aH"/><g id="o"><use transform="matrix(0.04938271604938272,0,0,0.04938271604938272,0,0)" xlink:href="#aC"/><use transform="matrix(0.04938271604938272,0,0,0.04938271604938272,14.765432098765434,0)" xlink:href="#ap"/><use transform="matrix(0.04938271604938272,0,0,0.04938271604938272,24.641975308641978,0)" xlink:href="#aB"/><use transform="matrix(0.04938271604938272,0,0,0.04938271604938272,30.518518518518523,0)" xlink:href="#aD"/><use transform="matrix(0.04938271604938272,0,0,0.04938271604938272,40.39506172839506,0)" xlink:href="#aE"/><use transform="matrix(0.04938271604938272,0,0,0.04938271604938272,51.20987654320988,0)" xlink:href="#at"/><use transform="matrix(0.04938271604938272,0,0,0.04938271604938272,61.086419753086425,0)" xlink:href="#aq"/><use transform="matrix(0.04938271604938272,0,0,0.04938271604938272,70.96296296296296,0)" xlink:href="#aF"/><use transform="matrix(0.04938271604938272,0,0,0.04938271604938272,76.8395061728395,0)" xlink:href="#as"/><use transform="matrix(0.04938271604938272,0,0,0.04938271604938272,87.65432098765432,0)" xlink:href="#aq"/><use transform="matrix(0.04938271604938272,0,0,0.04938271604938272,97.53086419753086,0)" xlink:href="#at"/><use transform="matrix(0.04938271604938272,0,0,0.04938271604938272,107.40740740740739,0)" xlink:href="#au"/><use transform="matrix(0.04938271604938272,0,0,0.04938271604938272,114.320987654321,0)" xlink:href="#av"/><use transform="matrix(0.04938271604938272,0,0,0.04938271604938272,125.1358024691358,0)" xlink:href="#ap"/><use transform="matrix(0.04938271604938272,0,0,0.04938271604938272,135.01234567901236,0)" xlink:href="#aw"/><use transform="matrix(0.04938271604938272,0,0,0.04938271604938272,150.81481481481484,0)" xlink:href="#at"/><use transform="matrix(0.04938271604938272,0,0,0.04938271604938272,160.6913580246914,0)" xlink:href="#aG"/><use transform="matrix(0.04938271604938272,0,0,0.04938271604938272,165.62962962962968,0)" xlink:href="#ax"/><use transform="matrix(0.04938271604938272,0,0,0.04938271604938272,176.44444444444449,0)" xlink:href="#ap"/><use transform="matrix(0.04938271604938272,0,0,0.04938271604938272,186.32098765432102,0)" xlink:href="#aq"/><use transform="matrix(0.04938271604938272,0,0,0.04938271604938272,196.19753086419757,0)" xlink:href="#aq"/><use transform="matrix(0.04938271604938272,0,0,0.04938271604938272,206.07407407407413,0)" xlink:href="#ay"/><use transform="matrix(0.04938271604938272,0,0,0.04938271604938272,219.9012345679013,0)" xlink:href="#az"/><use transform="matrix(0.04938271604938272,0,0,0.04938271604938272,230.7160493827161,0)" xlink:href="#au"/><use transform="matrix(0.04938271604938272,0,0,0.04938271604938272,237.6296296296297,0)" xlink:href="#aA"/><use transform="matrix(0.04938271604938272,0,0,0.04938271604938272,248.44444444444446,0)" xlink:href="#aH"/></g><path fill="#8b412b" d="M205 0l-28-72H64L36 0H1l101-248h38L239 0h-34zm-38-99l-47-123c-12 45-31 82-46 123h93" id="aI"/><g id="p"><use transform="matrix(0.06172839506172839,0,0,0.06172839506172839,0,0)" xlink:href="#aI"/><use transform="matrix(0.06172839506172839,0,0,0.06172839506172839,14.814814814814813,0)" xlink:href="#af"/><use transform="matrix(0.06172839506172839,0,0,0.06172839506172839,19.691358024691354,0)" xlink:href="#ae"/><use transform="matrix(0.06172839506172839,0,0,0.06172839506172839,25.864197530864192,0)" xlink:href="#U"/><use transform="matrix(0.06172839506172839,0,0,0.06172839506172839,38.20987654320987,0)" xlink:href="#V"/><use transform="matrix(0.06172839506172839,0,0,0.06172839506172839,45.55555555555555,0)" xlink:href="#aa"/><use transform="matrix(0.06172839506172839,0,0,0.06172839506172839,57.90123456790123,0)" xlink:href="#an"/><use transform="matrix(0.06172839506172839,0,0,0.06172839506172839,70.24691358024691,0)" xlink:href="#ae"/><use transform="matrix(0.06172839506172839,0,0,0.06172839506172839,76.41975308641975,0)" xlink:href="#Z"/><use transform="matrix(0.06172839506172839,0,0,0.06172839506172839,81.29629629629629,0)" xlink:href="#al"/><use transform="matrix(0.06172839506172839,0,0,0.06172839506172839,92.4074074074074,0)" xlink:href="#U"/></g><path fill="#8b412b" d="M26 75v-336h71v23H56V52h41v23H26" id="aJ"/><g id="q"><use transform="matrix(0.06172839506172839,0,0,0.06172839506172839,0,0)" xlink:href="#aJ"/><use transform="matrix(0.06172839506172839,0,0,0.06172839506172839,6.172839506172839,0)" xlink:href="#aj"/><use transform="matrix(0.06172839506172839,0,0,0.06172839506172839,18.51851851851852,0)" xlink:href="#T"/><use transform="matrix(0.06172839506172839,0,0,0.06172839506172839,29.62962962962963,0)" xlink:href="#U"/><use transform="matrix(0.06172839506172839,0,0,0.06172839506172839,41.97530864197531,0)" xlink:href="#V"/><use transform="matrix(0.06172839506172839,0,0,0.06172839506172839,49.32098765432099,0)" xlink:href="#aa"/><use transform="matrix(0.06172839506172839,0,0,0.06172839506172839,61.666666666666664,0)" xlink:href="#an"/><use transform="matrix(0.06172839506172839,0,0,0.06172839506172839,74.01234567901234,0)" xlink:href="#ah"/><use transform="matrix(0.06172839506172839,0,0,0.06172839506172839,92.46913580246913,0)" xlink:href="#U"/></g><g id="r"><use transform="matrix(0.06172839506172839,0,0,0.06172839506172839,0,0)" xlink:href="#X"/><use transform="matrix(0.06172839506172839,0,0,0.06172839506172839,12.345679012345679,0)" xlink:href="#V"/></g><path fill="#8b412b" d="M115-194c55 1 70 41 70 98S169 2 115 4C84 4 66-9 55-30l1 105H24l-1-265h31l2 30c10-21 28-34 59-34zm-8 174c40 0 45-34 45-75s-6-73-45-74c-42 0-51 32-51 76 0 43 10 73 51 73" id="aK"/><path fill="#8b412b" d="M85-194c31 0 48 13 60 33l-1-100h32l1 261h-30c-2-10 0-23-3-31C134-8 116 4 85 4 32 4 16-35 15-94c0-66 23-100 70-100zm9 24c-40 0-46 34-46 75 0 40 6 74 45 74 42 0 51-32 51-76 0-42-9-74-50-73" id="aL"/><g id="s"><use transform="matrix(0.06172839506172839,0,0,0.06172839506172839,0,0)" xlink:href="#aK"/><use transform="matrix(0.06172839506172839,0,0,0.06172839506172839,12.345679012345679,0)" xlink:href="#an"/><use transform="matrix(0.06172839506172839,0,0,0.06172839506172839,24.691358024691358,0)" xlink:href="#T"/><use transform="matrix(0.06172839506172839,0,0,0.06172839506172839,35.80246913580247,0)" xlink:href="#T"/><use transform="matrix(0.06172839506172839,0,0,0.06172839506172839,46.91358024691358,0)" xlink:href="#ac"/><use transform="matrix(0.06172839506172839,0,0,0.06172839506172839,62.901234567901234,0)" xlink:href="#X"/><use transform="matrix(0.06172839506172839,0,0,0.06172839506172839,75.24691358024691,0)" xlink:href="#V"/><use transform="matrix(0.06172839506172839,0,0,0.06172839506172839,82.5925925925926,0)" xlink:href="#aL"/></g><path fill="#8b412b" d="M47-170H22l-4-78h33" id="aM"/><g id="t"><use transform="matrix(0.06172839506172839,0,0,0.06172839506172839,0,0)" xlink:href="#aL"/><use transform="matrix(0.06172839506172839,0,0,0.06172839506172839,12.345679012345679,0)" xlink:href="#X"/><use transform="matrix(0.06172839506172839,0,0,0.06172839506172839,24.691358024691358,0)" xlink:href="#U"/><use transform="matrix(0.06172839506172839,0,0,0.06172839506172839,37.03703703703704,0)" xlink:href="#T"/><use transform="matrix(0.06172839506172839,0,0,0.06172839506172839,48.14814814814815,0)" xlink:href="#aa"/><use transform="matrix(0.06172839506172839,0,0,0.06172839506172839,60.49382716049383,0)" xlink:href="#aM"/><use transform="matrix(0.06172839506172839,0,0,0.06172839506172839,64.69135802469135,0)" xlink:href="#ae"/></g><path fill="#8b412b" d="M96-169c-40 0-48 33-48 73s9 75 48 75c24 0 41-14 43-38l32 2c-6 37-31 61-74 61-59 0-76-41-82-99-10-93 101-131 147-64 4 7 5 14 7 22l-32 3c-4-21-16-35-41-35" id="aN"/><path fill="#8b412b" d="M106-169C34-169 62-67 57 0H25v-261h32l-1 103c12-21 28-36 61-36 89 0 53 116 60 194h-32v-121c2-32-8-49-39-48" id="aO"/><path fill="#8b412b" d="M3 75V52h41v-290H3v-23h71V75H3" id="aP"/><g id="u"><use transform="matrix(0.06172839506172839,0,0,0.06172839506172839,0,0)" xlink:href="#ah"/><use transform="matrix(0.06172839506172839,0,0,0.06172839506172839,18.456790123456788,0)" xlink:href="#an"/><use transform="matrix(0.06172839506172839,0,0,0.06172839506172839,30.80246913580247,0)" xlink:href="#ae"/><use transform="matrix(0.06172839506172839,0,0,0.06172839506172839,36.97530864197531,0)" xlink:href="#aN"/><use transform="matrix(0.06172839506172839,0,0,0.06172839506172839,48.08641975308642,0)" xlink:href="#aO"/><use transform="matrix(0.06172839506172839,0,0,0.06172839506172839,60.432098765432094,0)" xlink:href="#aP"/></g><path fill="#8b412b" d="M234-2c-28 10-62 0-77-18C117 19 8 12 13-65c3-43 29-61 60-76-25-40-17-114 47-108 35 3 59 15 59 50 0 44-40 53-71 69 14 26 32 50 51 72 14-21 24-43 30-72l26 8c-9 33-21 57-38 82 13 13 33 22 57 15v23zM97-151c25-10 52-18 56-48-1-18-13-29-33-29-42 0-39 50-23 77zM42-66c-3 51 71 58 98 28-20-24-41-51-56-80-23 10-40 24-42 52" id="aQ"/><use transform="matrix(0.06172839506172839,0,0,0.06172839506172839,0,0)" xlink:href="#aQ" id="v"/><g id="w"><use transform="matrix(0.06172839506172839,0,0,0.06172839506172839,0,0)" xlink:href="#W"/><use transform="matrix(0.06172839506172839,0,0,0.06172839506172839,12.345679012345679,0)" xlink:href="#X"/><use transform="matrix(0.06172839506172839,0,0,0.06172839506172839,24.691358024691358,0)" xlink:href="#X"/><use transform="matrix(0.06172839506172839,0,0,0.06172839506172839,37.03703703703704,0)" xlink:href="#aK"/></g><g id="x"><use transform="matrix(0.04938271604938272,0,0,0.04938271604938272,0,0)" xlink:href="#as"/><use transform="matrix(0.04938271604938272,0,0,0.04938271604938272,10.814814814814815,0)" xlink:href="#aq"/><use transform="matrix(0.04938271604938272,0,0,0.04938271604938272,20.69135802469136,0)" xlink:href="#at"/><use transform="matrix(0.04938271604938272,0,0,0.04938271604938272,30.567901234567906,0)" xlink:href="#au"/><use transform="matrix(0.04938271604938272,0,0,0.04938271604938272,37.48148148148149,0)" xlink:href="#av"/><use transform="matrix(0.04938271604938272,0,0,0.04938271604938272,48.296296296296305,0)" xlink:href="#ap"/><use transform="matrix(0.04938271604938272,0,0,0.04938271604938272,58.17283950617284,0)" xlink:href="#aw"/><use transform="matrix(0.04938271604938272,0,0,0.04938271604938272,73.97530864197532,0)" xlink:href="#at"/></g><g id="y"><use transform="matrix(0.04938271604938272,0,0,0.04938271604938272,0,0)" xlink:href="#az"/><use transform="matrix(0.04938271604938272,0,0,0.04938271604938272,10.814814814814815,0)" xlink:href="#au"/></g><g id="z"><use transform="matrix(0.04938271604938272,0,0,0.04938271604938272,0,0)" xlink:href="#ax"/><use transform="matrix(0.04938271604938272,0,0,0.04938271604938272,10.814814814814815,0)" xlink:href="#ap"/><use transform="matrix(0.04938271604938272,0,0,0.04938271604938272,20.69135802469136,0)" xlink:href="#aq"/><use transform="matrix(0.04938271604938272,0,0,0.04938271604938272,30.567901234567906,0)" xlink:href="#aq"/><use transform="matrix(0.04938271604938272,0,0,0.04938271604938272,40.44444444444445,0)" xlink:href="#ay"/><use transform="matrix(0.04938271604938272,0,0,0.04938271604938272,54.27160493827161,0)" xlink:href="#az"/><use transform="matrix(0.04938271604938272,0,0,0.04938271604938272,65.08641975308642,0)" xlink:href="#au"/><use transform="matrix(0.04938271604938272,0,0,0.04938271604938272,72,0)" xlink:href="#aA"/></g><path fill="#8b412b" d="M62-158H24l-5-90h48" id="aR"/><g id="A"><use transform="matrix(0.04938271604938272,0,0,0.04938271604938272,0,0)" xlink:href="#aA"/><use transform="matrix(0.04938271604938272,0,0,0.04938271604938272,10.814814814814815,0)" xlink:href="#az"/><use transform="matrix(0.04938271604938272,0,0,0.04938271604938272,21.62962962962963,0)" xlink:href="#at"/><use transform="matrix(0.04938271604938272,0,0,0.04938271604938272,31.506172839506174,0)" xlink:href="#aq"/><use transform="matrix(0.04938271604938272,0,0,0.04938271604938272,41.38271604938272,0)" xlink:href="#av"/><use transform="matrix(0.04938271604938272,0,0,0.04938271604938272,52.19753086419754,0)" xlink:href="#aR"/><use transform="matrix(0.04938271604938272,0,0,0.04938271604938272,56.39506172839506,0)" xlink:href="#aB"/></g><g id="B"><use transform="matrix(0.04938271604938272,0,0,0.04938271604938272,0,0)" xlink:href="#aw"/><use transform="matrix(0.04938271604938272,0,0,0.04938271604938272,15.80246913580247,0)" xlink:href="#ap"/><use transform="matrix(0.04938271604938272,0,0,0.04938271604938272,25.679012345679016,0)" xlink:href="#aB"/><use transform="matrix(0.04938271604938272,0,0,0.04938271604938272,31.555555555555557,0)" xlink:href="#aD"/><use transform="matrix(0.04938271604938272,0,0,0.04938271604938272,41.4320987654321,0)" xlink:href="#aE"/></g><g id="C"><use transform="matrix(0.04938271604938272,0,0,0.04938271604938272,0,0)" xlink:href="#aw"/><use transform="matrix(0.04938271604938272,0,0,0.04938271604938272,15.80246913580247,0)" xlink:href="#ap"/><use transform="matrix(0.04938271604938272,0,0,0.04938271604938272,25.679012345679016,0)" xlink:href="#aB"/><use transform="matrix(0.04938271604938272,0,0,0.04938271604938272,31.555555555555557,0)" xlink:href="#aD"/><use transform="matrix(0.04938271604938272,0,0,0.04938271604938272,41.4320987654321,0)" xlink:href="#aE"/></g><g id="D"><use transform="matrix(0.04938271604938272,0,0,0.04938271604938272,0,0)" xlink:href="#at"/><use transform="matrix(0.04938271604938272,0,0,0.04938271604938272,9.876543209876544,0)" xlink:href="#au"/><use transform="matrix(0.04938271604938272,0,0,0.04938271604938272,16.790123456790127,0)" xlink:href="#au"/><use transform="matrix(0.04938271604938272,0,0,0.04938271604938272,23.70370370370371,0)" xlink:href="#az"/><use transform="matrix(0.04938271604938272,0,0,0.04938271604938272,34.518518518518526,0)" xlink:href="#au"/></g><path fill="#8b412b" d="M195-6C206 82 75 100 31 46c-4-6-6-13-8-21l49-6c3 16 16 24 34 25 40 0 42-37 40-79-11 22-30 35-61 35-53 0-70-43-70-97 0-56 18-96 73-97 30 0 46 14 59 34l2-30h47zm-90-29c32 0 41-27 41-63 0-35-9-62-40-62-32 0-39 29-40 63 0 36 9 62 39 62" id="aS"/><g id="E"><use transform="matrix(0.04938271604938272,0,0,0.04938271604938272,0,0)" xlink:href="#aw"/><use transform="matrix(0.04938271604938272,0,0,0.04938271604938272,15.80246913580247,0)" xlink:href="#aq"/><use transform="matrix(0.04938271604938272,0,0,0.04938271604938272,25.679012345679016,0)" xlink:href="#aS"/></g><path fill="#8b412b" d="M140-251c81 0 123 46 123 126C263-46 219 4 140 4 59 4 17-45 17-125s42-126 123-126zm0 227c63 0 89-41 89-101s-29-99-89-99c-61 0-89 39-89 99S79-25 140-24" id="aT"/><g id="F"><use transform="matrix(0.06172839506172839,0,0,0.06172839506172839,0,0)" xlink:href="#aT"/><use transform="matrix(0.06172839506172839,0,0,0.06172839506172839,17.28395061728395,0)" xlink:href="#aK"/><use transform="matrix(0.06172839506172839,0,0,0.06172839506172839,29.629629629629626,0)" xlink:href="#ae"/></g><path fill="#8b412b" d="M143 4C61 4 22-44 18-125c-5-107 100-154 193-111 17 8 29 25 37 43l-32 9c-13-25-37-40-76-40-61 0-88 39-88 99 0 61 29 100 91 101 35 0 62-11 79-27v-45h-74v-28h105v86C228-13 192 4 143 4" id="aU"/><path fill="#8b412b" d="M33 0v-248h34V0H33" id="aV"/><path fill="#8b412b" d="M33-154v-36h34v36H33zM33 0v-36h34V0H33" id="aW"/><path fill="#8b412b" d="M179-190L93 31C79 59 56 82 12 73V49c39 6 53-20 64-50L1-190h34L92-34l54-156h33" id="aX"/><g id="G"><use transform="matrix(0.06172839506172839,0,0,0.06172839506172839,0,0)" xlink:href="#aU"/><use transform="matrix(0.06172839506172839,0,0,0.06172839506172839,17.28395061728395,0)" xlink:href="#S"/><use transform="matrix(0.06172839506172839,0,0,0.06172839506172839,33.2716049382716,0)" xlink:href="#aV"/><use transform="matrix(0.06172839506172839,0,0,0.06172839506172839,39.44444444444444,0)" xlink:href="#aW"/><use transform="matrix(0.06172839506172839,0,0,0.06172839506172839,45.617283950617285,0)" xlink:href="#aL"/><use transform="matrix(0.06172839506172839,0,0,0.06172839506172839,57.96296296296296,0)" xlink:href="#Z"/><use transform="matrix(0.06172839506172839,0,0,0.06172839506172839,62.839506172839506,0)" xlink:href="#T"/><use transform="matrix(0.06172839506172839,0,0,0.06172839506172839,73.95061728395062,0)" xlink:href="#aK"/><use transform="matrix(0.06172839506172839,0,0,0.06172839506172839,86.2962962962963,0)" xlink:href="#af"/><use transform="matrix(0.06172839506172839,0,0,0.06172839506172839,91.17283950617285,0)" xlink:href="#an"/><use transform="matrix(0.06172839506172839,0,0,0.06172839506172839,103.51851851851853,0)" xlink:href="#aX"/></g><g id="H"><use transform="matrix(0.06172839506172839,0,0,0.06172839506172839,0,0)" xlink:href="#aj"/><use transform="matrix(0.06172839506172839,0,0,0.06172839506172839,12.345679012345679,0)" xlink:href="#T"/><use transform="matrix(0.06172839506172839,0,0,0.06172839506172839,23.45679012345679,0)" xlink:href="#U"/><use transform="matrix(0.06172839506172839,0,0,0.06172839506172839,35.80246913580247,0)" xlink:href="#V"/><use transform="matrix(0.06172839506172839,0,0,0.06172839506172839,43.148148148148145,0)" xlink:href="#aa"/><use transform="matrix(0.06172839506172839,0,0,0.06172839506172839,55.49382716049382,0)" xlink:href="#an"/><use transform="matrix(0.06172839506172839,0,0,0.06172839506172839,67.8395061728395,0)" xlink:href="#ah"/><use transform="matrix(0.06172839506172839,0,0,0.06172839506172839,86.29629629629629,0)" xlink:href="#U"/></g><g id="I"><use transform="matrix(0.06172839506172839,0,0,0.06172839506172839,0,0)" xlink:href="#Z"/><use transform="matrix(0.06172839506172839,0,0,0.06172839506172839,4.876543209876543,0)" xlink:href="#aa"/><use transform="matrix(0.06172839506172839,0,0,0.06172839506172839,17.22222222222222,0)" xlink:href="#aK"/><use transform="matrix(0.06172839506172839,0,0,0.06172839506172839,29.5679012345679,0)" xlink:href="#aj"/><use transform="matrix(0.06172839506172839,0,0,0.06172839506172839,41.913580246913575,0)" xlink:href="#ae"/></g><g id="J"><use transform="matrix(0.06172839506172839,0,0,0.06172839506172839,0,0)" xlink:href="#T"/><use transform="matrix(0.06172839506172839,0,0,0.06172839506172839,11.11111111111111,0)" xlink:href="#aK"/><use transform="matrix(0.06172839506172839,0,0,0.06172839506172839,23.45679012345679,0)" xlink:href="#an"/><use transform="matrix(0.06172839506172839,0,0,0.06172839506172839,35.80246913580247,0)" xlink:href="#aN"/><use transform="matrix(0.06172839506172839,0,0,0.06172839506172839,46.91358024691358,0)" xlink:href="#U"/></g><g id="K"><use transform="matrix(0.06172839506172839,0,0,0.06172839506172839,0,0)" xlink:href="#Z"/><use transform="matrix(0.06172839506172839,0,0,0.06172839506172839,4.876543209876543,0)" xlink:href="#aa"/></g><g id="L"><use transform="matrix(0.06172839506172839,0,0,0.06172839506172839,0,0)" xlink:href="#V"/><use transform="matrix(0.06172839506172839,0,0,0.06172839506172839,7.345679012345679,0)" xlink:href="#U"/><use transform="matrix(0.06172839506172839,0,0,0.06172839506172839,19.691358024691358,0)" xlink:href="#aL"/></g><g id="M"><use transform="matrix(0.04938271604938272,0,0,0.04938271604938272,0,0)" xlink:href="#as"/><use transform="matrix(0.04938271604938272,0,0,0.04938271604938272,10.814814814814815,0)" xlink:href="#aq"/><use transform="matrix(0.04938271604938272,0,0,0.04938271604938272,20.69135802469136,0)" xlink:href="#at"/><use transform="matrix(0.04938271604938272,0,0,0.04938271604938272,30.567901234567906,0)" xlink:href="#au"/><use transform="matrix(0.04938271604938272,0,0,0.04938271604938272,37.48148148148149,0)" xlink:href="#av"/><use transform="matrix(0.04938271604938272,0,0,0.04938271604938272,48.296296296296305,0)" xlink:href="#ap"/><use transform="matrix(0.04938271604938272,0,0,0.04938271604938272,58.17283950617284,0)" xlink:href="#aw"/><use transform="matrix(0.04938271604938272,0,0,0.04938271604938272,73.97530864197532,0)" xlink:href="#at"/></g><g id="N"><use transform="matrix(0.04938271604938272,0,0,0.04938271604938272,0,0)" xlink:href="#az"/><use transform="matrix(0.04938271604938272,0,0,0.04938271604938272,10.814814814814815,0)" xlink:href="#au"/></g><g id="O"><use transform="matrix(0.04938271604938272,0,0,0.04938271604938272,0,0)" xlink:href="#ax"/><use transform="matrix(0.04938271604938272,0,0,0.04938271604938272,10.814814814814815,0)" xlink:href="#ap"/><use transform="matrix(0.04938271604938272,0,0,0.04938271604938272,20.69135802469136,0)" xlink:href="#aq"/><use transform="matrix(0.04938271604938272,0,0,0.04938271604938272,30.567901234567906,0)" xlink:href="#aq"/><use transform="matrix(0.04938271604938272,0,0,0.04938271604938272,40.44444444444445,0)" xlink:href="#ay"/><use transform="matrix(0.04938271604938272,0,0,0.04938271604938272,54.27160493827161,0)" xlink:href="#az"/><use transform="matrix(0.04938271604938272,0,0,0.04938271604938272,65.08641975308642,0)" xlink:href="#au"/><use transform="matrix(0.04938271604938272,0,0,0.04938271604938272,72,0)" xlink:href="#aA"/></g><path fill="#8b412b" d="M168-19C124 19 11 11 16-68c3-43 29-60 59-75-25-44-12-111 53-106 37 3 64 15 64 52 0 43-40 52-69 68 12 22 27 41 43 59 14-19 21-38 28-64l37 13c-8 29-19 52-34 74 12 10 32 16 52 10v35c-28 11-65-2-81-17zm-58-139c19-9 43-14 43-39 0-14-10-22-25-22-34 0-33 41-18 61zM60-68c-3 40 55 47 79 25-18-20-34-42-48-67-18 8-30 20-31 42" id="aY"/><use transform="matrix(0.04938271604938272,0,0,0.04938271604938272,0,0)" xlink:href="#aY" id="P"/><path fill="#8b412b" d="M186 0v-106H76V0H24v-248h52v99h110v-99h50V0h-50" id="aZ"/><path fill="#8b412b" d="M147 0H94L2-248h55l64 206c17-72 42-137 63-206h54" id="ba"/><path fill="#8b412b" d="M25-224v-37h50v37H25zM25 0v-190h50V0H25" id="bb"/><g id="Q"><use transform="matrix(0.04938271604938272,0,0,0.04938271604938272,0,0)" xlink:href="#aq"/><use transform="matrix(0.04938271604938272,0,0,0.04938271604938272,9.876543209876544,0)" xlink:href="#aE"/><use transform="matrix(0.04938271604938272,0,0,0.04938271604938272,20.69135802469136,0)" xlink:href="#az"/><use transform="matrix(0.04938271604938272,0,0,0.04938271604938272,31.506172839506174,0)" xlink:href="#ay"/><use transform="matrix(0.04938271604938272,0,0,0.04938271604938272,45.33333333333334,0)" xlink:href="#aF"/><use transform="matrix(0.04938271604938272,0,0,0.04938271604938272,51.209876543209894,0)" xlink:href="#aZ"/><use transform="matrix(0.04938271604938272,0,0,0.04938271604938272,64.00000000000001,0)" xlink:href="#az"/><use transform="matrix(0.04938271604938272,0,0,0.04938271604938272,74.81481481481482,0)" xlink:href="#aw"/><use transform="matrix(0.04938271604938272,0,0,0.04938271604938272,90.61728395061729,0)" xlink:href="#at"/><use transform="matrix(0.04938271604938272,0,0,0.04938271604938272,100.49382716049384,0)" xlink:href="#aC"/><use transform="matrix(0.04938271604938272,0,0,0.04938271604938272,115.25925925925927,0)" xlink:href="#at"/><use transform="matrix(0.04938271604938272,0,0,0.04938271604938272,125.13580246913581,0)" xlink:href="#av"/><use transform="matrix(0.04938271604938272,0,0,0.04938271604938272,135.95061728395063,0)" xlink:href="#as"/><use transform="matrix(0.04938271604938272,0,0,0.04938271604938272,146.76543209876544,0)" xlink:href="#ba"/><use transform="matrix(0.04938271604938272,0,0,0.04938271604938272,158.27160493827162,0)" xlink:href="#bb"/><use transform="matrix(0.04938271604938272,0,0,0.04938271604938272,163.2098765432099,0)" xlink:href="#at"/><use transform="matrix(0.04938271604938272,0,0,0.04938271604938272,173.08641975308643,0)" xlink:href="#ay"/><use transform="matrix(0.04938271604938272,0,0,0.04938271604938272,186.9135802469136,0)" xlink:href="#aH"/></g><path fill="#8b412b" d="M25 0v-261h50V0H25" id="bc"/><path fill="#8b412b" d="M121-226c-27-7-43 5-38 36h38v33H83V0H34v-157H6v-33h28c-9-59 32-81 87-68v32" id="bd"/><g id="R"><use transform="matrix(0.04938271604938272,0,0,0.04938271604938272,0,0)" xlink:href="#aq"/><use transform="matrix(0.04938271604938272,0,0,0.04938271604938272,9.876543209876544,0)" xlink:href="#aE"/><use transform="matrix(0.04938271604938272,0,0,0.04938271604938272,20.69135802469136,0)" xlink:href="#az"/><use transform="matrix(0.04938271604938272,0,0,0.04938271604938272,31.506172839506174,0)" xlink:href="#ay"/><use transform="matrix(0.04938271604938272,0,0,0.04938271604938272,45.33333333333334,0)" xlink:href="#aF"/><use transform="matrix(0.04938271604938272,0,0,0.04938271604938272,51.209876543209894,0)" xlink:href="#aq"/><use transform="matrix(0.04938271604938272,0,0,0.04938271604938272,61.08641975308644,0)" xlink:href="#at"/><use transform="matrix(0.04938271604938272,0,0,0.04938271604938272,70.96296296296298,0)" xlink:href="#bc"/><use transform="matrix(0.04938271604938272,0,0,0.04938271604938272,75.90123456790124,0)" xlink:href="#bd"/><use transform="matrix(0.04938271604938272,0,0,0.04938271604938272,81.77777777777779,0)" xlink:href="#aH"/></g></defs></g></svg>